<mxfile host="drawio-plugin" modified="2022-04-11T18:56:41.080Z" agent="5.0 (Windows NT 6.2; Win64; x64) AppleWebKit/537.36 (KHTML, like Gecko) Chrome/89.0.4389.114 Safari/537.36" etag="8vL-QpwVNMmyrEBCkRLs" version="15.5.4" type="embed"><diagram name="Page-1" id="ad52d381-51e7-2e0d-a935-2d0ddd2fd229"><mxGraphModel dx="3017" dy="2065" grid="1" gridSize="10" guides="1" tooltips="1" connect="1" arrows="1" fold="1" page="0" pageScale="1" pageWidth="1100" pageHeight="850" background="none" math="0" shadow="0"><root><mxCell id="0"/><mxCell id="1" parent="0"/><mxCell id="tvLHyavc6nxqDLxPzf1x-6" value="出厂批号" style="ellipse;whiteSpace=wrap;html=1;fontSize=18;strokeWidth=1;" parent="1" vertex="1"><mxGeometry x="-850" y="800" width="90" height="30" as="geometry"/></mxCell><mxCell id="tvLHyavc6nxqDLxPzf1x-201" style="edgeStyle=none;shape=connector;rounded=0;orthogonalLoop=1;jettySize=auto;html=1;exitX=1;exitY=1;exitDx=0;exitDy=0;labelBackgroundColor=default;fontFamily=Helvetica;fontSize=18;fontColor=default;endArrow=none;strokeColor=default;" parent="1" source="tvLHyavc6nxqDLxPzf1x-8" target="tvLHyavc6nxqDLxPzf1x-196" edge="1"><mxGeometry relative="1" as="geometry"/></mxCell><mxCell id="tvLHyavc6nxqDLxPzf1x-8" value="合同号" style="ellipse;whiteSpace=wrap;html=1;fontSize=18;strokeWidth=1;" parent="1" vertex="1"><mxGeometry x="-915" y="205" width="80" height="50" as="geometry"/></mxCell><mxCell id="tvLHyavc6nxqDLxPzf1x-56" style="edgeStyle=none;shape=connector;rounded=0;orthogonalLoop=1;jettySize=auto;html=1;entryX=1;entryY=1;entryDx=0;entryDy=0;labelBackgroundColor=default;fontFamily=Helvetica;fontSize=18;fontColor=default;endArrow=none;strokeColor=default;" parent="1" source="tvLHyavc6nxqDLxPzf1x-9" target="tvLHyavc6nxqDLxPzf1x-30" edge="1"><mxGeometry relative="1" as="geometry"/></mxCell><mxCell id="tvLHyavc6nxqDLxPzf1x-57" style="edgeStyle=none;shape=connector;rounded=0;orthogonalLoop=1;jettySize=auto;html=1;labelBackgroundColor=default;fontFamily=Helvetica;fontSize=18;fontColor=default;endArrow=none;strokeColor=default;" parent="1" source="tvLHyavc6nxqDLxPzf1x-9" target="tvLHyavc6nxqDLxPzf1x-19" edge="1"><mxGeometry relative="1" as="geometry"/></mxCell><mxCell id="tvLHyavc6nxqDLxPzf1x-58" style="edgeStyle=none;shape=connector;rounded=0;orthogonalLoop=1;jettySize=auto;html=1;labelBackgroundColor=default;fontFamily=Helvetica;fontSize=18;fontColor=default;endArrow=none;strokeColor=default;" parent="1" source="tvLHyavc6nxqDLxPzf1x-9" target="tvLHyavc6nxqDLxPzf1x-16" edge="1"><mxGeometry relative="1" as="geometry"/></mxCell><mxCell id="tvLHyavc6nxqDLxPzf1x-59" style="edgeStyle=none;shape=connector;rounded=0;orthogonalLoop=1;jettySize=auto;html=1;labelBackgroundColor=default;fontFamily=Helvetica;fontSize=18;fontColor=default;endArrow=none;strokeColor=default;" parent="1" source="tvLHyavc6nxqDLxPzf1x-9" target="tvLHyavc6nxqDLxPzf1x-17" edge="1"><mxGeometry relative="1" as="geometry"/></mxCell><mxCell id="tvLHyavc6nxqDLxPzf1x-187" style="edgeStyle=none;shape=connector;rounded=0;orthogonalLoop=1;jettySize=auto;html=1;exitX=0.75;exitY=0;exitDx=0;exitDy=0;entryX=0;entryY=0.5;entryDx=0;entryDy=0;labelBackgroundColor=default;fontFamily=Helvetica;fontSize=18;fontColor=default;endArrow=none;strokeColor=default;" parent="1" source="tvLHyavc6nxqDLxPzf1x-9" target="tvLHyavc6nxqDLxPzf1x-98" edge="1"><mxGeometry relative="1" as="geometry"/></mxCell><mxCell id="tvLHyavc6nxqDLxPzf1x-199" style="edgeStyle=none;shape=connector;rounded=0;orthogonalLoop=1;jettySize=auto;html=1;exitX=0.5;exitY=1;exitDx=0;exitDy=0;labelBackgroundColor=default;fontFamily=Helvetica;fontSize=18;fontColor=default;endArrow=none;strokeColor=default;" parent="1" source="tvLHyavc6nxqDLxPzf1x-9" target="tvLHyavc6nxqDLxPzf1x-196" edge="1"><mxGeometry relative="1" as="geometry"/></mxCell><mxCell id="tvLHyavc6nxqDLxPzf1x-213" style="edgeStyle=none;shape=connector;rounded=0;orthogonalLoop=1;jettySize=auto;html=1;exitX=0.5;exitY=0;exitDx=0;exitDy=0;entryX=0.5;entryY=1;entryDx=0;entryDy=0;labelBackgroundColor=default;fontFamily=Helvetica;fontSize=18;fontColor=default;endArrow=none;strokeColor=default;" parent="1" source="tvLHyavc6nxqDLxPzf1x-9" target="tvLHyavc6nxqDLxPzf1x-212" edge="1"><mxGeometry relative="1" as="geometry"/></mxCell><mxCell id="tvLHyavc6nxqDLxPzf1x-237" style="edgeStyle=none;shape=connector;rounded=0;orthogonalLoop=1;jettySize=auto;html=1;exitX=0.5;exitY=1;exitDx=0;exitDy=0;labelBackgroundColor=default;fontFamily=Helvetica;fontSize=18;fontColor=default;endArrow=none;strokeColor=default;" parent="1" source="tvLHyavc6nxqDLxPzf1x-9" target="tvLHyavc6nxqDLxPzf1x-10" edge="1"><mxGeometry relative="1" as="geometry"/></mxCell><mxCell id="tvLHyavc6nxqDLxPzf1x-238" style="edgeStyle=none;shape=connector;rounded=0;orthogonalLoop=1;jettySize=auto;html=1;exitX=1;exitY=0.25;exitDx=0;exitDy=0;entryX=0;entryY=0.5;entryDx=0;entryDy=0;labelBackgroundColor=default;fontFamily=Helvetica;fontSize=18;fontColor=default;endArrow=none;strokeColor=default;" parent="1" source="tvLHyavc6nxqDLxPzf1x-9" target="tvLHyavc6nxqDLxPzf1x-141" edge="1"><mxGeometry relative="1" as="geometry"/></mxCell><mxCell id="tvLHyavc6nxqDLxPzf1x-269" style="edgeStyle=none;shape=connector;rounded=0;orthogonalLoop=1;jettySize=auto;html=1;entryX=0.281;entryY=1.017;entryDx=0;entryDy=0;entryPerimeter=0;labelBackgroundColor=default;fontFamily=Helvetica;fontSize=18;fontColor=default;endArrow=none;strokeColor=default;" parent="1" target="tvLHyavc6nxqDLxPzf1x-268" edge="1"><mxGeometry relative="1" as="geometry"><mxPoint x="-690" y="70" as="sourcePoint"/></mxGeometry></mxCell><mxCell id="GQjXle8w0AGS4FvWoTMW-5" style="edgeStyle=none;rounded=0;orthogonalLoop=1;jettySize=auto;html=1;exitX=0.75;exitY=0;exitDx=0;exitDy=0;entryX=0.5;entryY=1;entryDx=0;entryDy=0;endArrow=none;endFill=0;fontSize=18;" parent="1" source="tvLHyavc6nxqDLxPzf1x-9" target="GQjXle8w0AGS4FvWoTMW-4" edge="1"><mxGeometry relative="1" as="geometry"/></mxCell><mxCell id="tvLHyavc6nxqDLxPzf1x-9" value="工厂" style="whiteSpace=wrap;html=1;fontSize=18;strokeWidth=1;rounded=1;" parent="1" vertex="1"><mxGeometry x="-750" y="80" width="120" height="60" as="geometry"/></mxCell><mxCell id="tvLHyavc6nxqDLxPzf1x-241" style="edgeStyle=none;shape=connector;rounded=0;orthogonalLoop=1;jettySize=auto;html=1;exitX=0.5;exitY=1;exitDx=0;exitDy=0;entryX=0;entryY=0.25;entryDx=0;entryDy=0;labelBackgroundColor=default;fontFamily=Helvetica;fontSize=18;fontColor=default;endArrow=none;strokeColor=default;" parent="1" source="tvLHyavc6nxqDLxPzf1x-10" target="tvLHyavc6nxqDLxPzf1x-20" edge="1"><mxGeometry relative="1" as="geometry"/></mxCell><mxCell id="GQjXle8w0AGS4FvWoTMW-214" style="edgeStyle=none;rounded=0;orthogonalLoop=1;jettySize=auto;html=1;exitX=0;exitY=1;exitDx=0;exitDy=0;fontSize=18;endArrow=none;endFill=0;entryX=0.613;entryY=0.033;entryDx=0;entryDy=0;entryPerimeter=0;" parent="1" source="tvLHyavc6nxqDLxPzf1x-10" target="GQjXle8w0AGS4FvWoTMW-216" edge="1"><mxGeometry relative="1" as="geometry"><mxPoint x="-1030" y="710" as="targetPoint"/></mxGeometry></mxCell><mxCell id="tvLHyavc6nxqDLxPzf1x-10" value="生产" style="rhombus;whiteSpace=wrap;html=1;fontSize=18;strokeWidth=1;" parent="1" vertex="1"><mxGeometry x="-685" y="320" width="100" height="55" as="geometry"/></mxCell><mxCell id="tvLHyavc6nxqDLxPzf1x-13" value="毛重、净重" style="ellipse;whiteSpace=wrap;html=1;fontSize=18;strokeWidth=1;" parent="1" vertex="1"><mxGeometry x="-535" y="940" width="95" height="40" as="geometry"/></mxCell><mxCell id="GQjXle8w0AGS4FvWoTMW-213" style="edgeStyle=none;rounded=0;orthogonalLoop=1;jettySize=auto;html=1;exitX=1;exitY=0;exitDx=0;exitDy=0;entryX=0;entryY=1;entryDx=0;entryDy=0;fontSize=18;endArrow=none;endFill=0;" parent="1" source="tvLHyavc6nxqDLxPzf1x-14" target="tvLHyavc6nxqDLxPzf1x-20" edge="1"><mxGeometry relative="1" as="geometry"/></mxCell><mxCell id="tvLHyavc6nxqDLxPzf1x-14" value="包装出货日期" style="ellipse;whiteSpace=wrap;html=1;fontSize=18;strokeWidth=1;" parent="1" vertex="1"><mxGeometry x="-840" y="830" width="110" height="50" as="geometry"/></mxCell><mxCell id="tvLHyavc6nxqDLxPzf1x-202" style="edgeStyle=none;shape=connector;rounded=0;orthogonalLoop=1;jettySize=auto;html=1;exitX=1;exitY=1;exitDx=0;exitDy=0;entryX=0;entryY=0;entryDx=0;entryDy=0;labelBackgroundColor=default;fontFamily=Helvetica;fontSize=18;fontColor=default;endArrow=none;strokeColor=default;" parent="1" source="tvLHyavc6nxqDLxPzf1x-15" target="tvLHyavc6nxqDLxPzf1x-196" edge="1"><mxGeometry relative="1" as="geometry"/></mxCell><mxCell id="tvLHyavc6nxqDLxPzf1x-15" value="数量" style="ellipse;whiteSpace=wrap;html=1;fontSize=18;strokeWidth=1;" parent="1" vertex="1"><mxGeometry x="-1015" y="215" width="90" height="50" as="geometry"/></mxCell><mxCell id="tvLHyavc6nxqDLxPzf1x-16" value="中文名称" style="ellipse;whiteSpace=wrap;html=1;fontSize=18;strokeWidth=1;" parent="1" vertex="1"><mxGeometry x="-1045" y="-50" width="120" height="60" as="geometry"/></mxCell><mxCell id="tvLHyavc6nxqDLxPzf1x-17" value="id" style="ellipse;whiteSpace=wrap;html=1;fontSize=18;strokeWidth=1;" parent="1" vertex="1"><mxGeometry x="-970" y="-90" width="120" height="60" as="geometry"/></mxCell><mxCell id="tvLHyavc6nxqDLxPzf1x-19" value="英文名称" style="ellipse;whiteSpace=wrap;html=1;fontSize=18;strokeWidth=1;" parent="1" vertex="1"><mxGeometry x="-1080" y="5" width="120" height="60" as="geometry"/></mxCell><mxCell id="tvLHyavc6nxqDLxPzf1x-63" style="edgeStyle=none;shape=connector;rounded=0;orthogonalLoop=1;jettySize=auto;html=1;labelBackgroundColor=default;fontFamily=Helvetica;fontSize=18;fontColor=default;endArrow=none;strokeColor=default;" parent="1" source="tvLHyavc6nxqDLxPzf1x-20" target="tvLHyavc6nxqDLxPzf1x-34" edge="1"><mxGeometry relative="1" as="geometry"/></mxCell><mxCell id="tvLHyavc6nxqDLxPzf1x-64" style="edgeStyle=none;shape=connector;rounded=0;orthogonalLoop=1;jettySize=auto;html=1;entryX=1;entryY=0;entryDx=0;entryDy=0;labelBackgroundColor=default;fontFamily=Helvetica;fontSize=18;fontColor=default;endArrow=none;strokeColor=default;" parent="1" source="tvLHyavc6nxqDLxPzf1x-20" target="tvLHyavc6nxqDLxPzf1x-28" edge="1"><mxGeometry relative="1" as="geometry"/></mxCell><mxCell id="tvLHyavc6nxqDLxPzf1x-65" style="edgeStyle=none;shape=connector;rounded=0;orthogonalLoop=1;jettySize=auto;html=1;entryX=1;entryY=1;entryDx=0;entryDy=0;labelBackgroundColor=default;fontFamily=Helvetica;fontSize=18;fontColor=default;endArrow=none;strokeColor=default;" parent="1" source="tvLHyavc6nxqDLxPzf1x-20" target="tvLHyavc6nxqDLxPzf1x-35" edge="1"><mxGeometry relative="1" as="geometry"/></mxCell><mxCell id="tvLHyavc6nxqDLxPzf1x-67" style="edgeStyle=none;shape=connector;rounded=0;orthogonalLoop=1;jettySize=auto;html=1;labelBackgroundColor=default;fontFamily=Helvetica;fontSize=18;fontColor=default;endArrow=none;strokeColor=default;" parent="1" source="tvLHyavc6nxqDLxPzf1x-20" target="tvLHyavc6nxqDLxPzf1x-6" edge="1"><mxGeometry relative="1" as="geometry"/></mxCell><mxCell id="tvLHyavc6nxqDLxPzf1x-75" style="edgeStyle=none;shape=connector;rounded=0;orthogonalLoop=1;jettySize=auto;html=1;exitX=0;exitY=1;exitDx=0;exitDy=0;entryX=1;entryY=0;entryDx=0;entryDy=0;labelBackgroundColor=default;fontFamily=Helvetica;fontSize=18;fontColor=default;endArrow=none;strokeColor=default;" parent="1" source="tvLHyavc6nxqDLxPzf1x-20" target="tvLHyavc6nxqDLxPzf1x-39" edge="1"><mxGeometry relative="1" as="geometry"/></mxCell><mxCell id="tvLHyavc6nxqDLxPzf1x-77" style="edgeStyle=none;shape=connector;rounded=0;orthogonalLoop=1;jettySize=auto;html=1;exitX=0.5;exitY=1;exitDx=0;exitDy=0;labelBackgroundColor=default;fontFamily=Helvetica;fontSize=18;fontColor=default;endArrow=none;strokeColor=default;" parent="1" source="tvLHyavc6nxqDLxPzf1x-20" target="tvLHyavc6nxqDLxPzf1x-13" edge="1"><mxGeometry relative="1" as="geometry"/></mxCell><mxCell id="tvLHyavc6nxqDLxPzf1x-80" style="edgeStyle=none;shape=connector;rounded=0;orthogonalLoop=1;jettySize=auto;html=1;exitX=0.25;exitY=1;exitDx=0;exitDy=0;labelBackgroundColor=default;fontFamily=Helvetica;fontSize=18;fontColor=default;endArrow=none;strokeColor=default;" parent="1" source="tvLHyavc6nxqDLxPzf1x-20" target="tvLHyavc6nxqDLxPzf1x-26" edge="1"><mxGeometry relative="1" as="geometry"/></mxCell><mxCell id="tvLHyavc6nxqDLxPzf1x-82" style="edgeStyle=none;shape=connector;rounded=0;orthogonalLoop=1;jettySize=auto;html=1;exitX=0.25;exitY=1;exitDx=0;exitDy=0;entryX=0.5;entryY=0;entryDx=0;entryDy=0;labelBackgroundColor=default;fontFamily=Helvetica;fontSize=18;fontColor=default;endArrow=none;strokeColor=default;" parent="1" source="tvLHyavc6nxqDLxPzf1x-20" target="tvLHyavc6nxqDLxPzf1x-23" edge="1"><mxGeometry relative="1" as="geometry"/></mxCell><mxCell id="tvLHyavc6nxqDLxPzf1x-84" style="edgeStyle=none;shape=connector;rounded=0;orthogonalLoop=1;jettySize=auto;html=1;exitX=0.5;exitY=1;exitDx=0;exitDy=0;labelBackgroundColor=default;fontFamily=Helvetica;fontSize=18;fontColor=default;endArrow=none;strokeColor=default;" parent="1" source="tvLHyavc6nxqDLxPzf1x-20" target="tvLHyavc6nxqDLxPzf1x-42" edge="1"><mxGeometry relative="1" as="geometry"/></mxCell><mxCell id="tvLHyavc6nxqDLxPzf1x-271" style="edgeStyle=none;shape=connector;rounded=0;orthogonalLoop=1;jettySize=auto;html=1;exitX=1;exitY=0.75;exitDx=0;exitDy=0;entryX=0;entryY=0.5;entryDx=0;entryDy=0;labelBackgroundColor=default;fontFamily=Helvetica;fontSize=18;fontColor=default;endArrow=none;strokeColor=default;" parent="1" source="tvLHyavc6nxqDLxPzf1x-20" target="tvLHyavc6nxqDLxPzf1x-265" edge="1"><mxGeometry relative="1" as="geometry"/></mxCell><mxCell id="tvLHyavc6nxqDLxPzf1x-272" style="edgeStyle=none;shape=connector;rounded=0;orthogonalLoop=1;jettySize=auto;html=1;exitX=0.75;exitY=1;exitDx=0;exitDy=0;entryX=0;entryY=0;entryDx=0;entryDy=0;labelBackgroundColor=default;fontFamily=Helvetica;fontSize=18;fontColor=default;endArrow=none;strokeColor=default;" parent="1" source="tvLHyavc6nxqDLxPzf1x-20" target="tvLHyavc6nxqDLxPzf1x-189" edge="1"><mxGeometry relative="1" as="geometry"/></mxCell><mxCell id="GQjXle8w0AGS4FvWoTMW-182" style="edgeStyle=none;rounded=0;orthogonalLoop=1;jettySize=auto;html=1;exitX=1;exitY=0.5;exitDx=0;exitDy=0;entryX=0;entryY=0.5;entryDx=0;entryDy=0;fontSize=18;endArrow=none;endFill=0;" parent="1" source="tvLHyavc6nxqDLxPzf1x-20" target="GQjXle8w0AGS4FvWoTMW-115" edge="1"><mxGeometry relative="1" as="geometry"/></mxCell><mxCell id="GQjXle8w0AGS4FvWoTMW-198" style="edgeStyle=none;rounded=0;orthogonalLoop=1;jettySize=auto;html=1;exitX=1;exitY=0.25;exitDx=0;exitDy=0;entryX=0;entryY=1;entryDx=0;entryDy=0;fontSize=18;endArrow=none;endFill=0;" parent="1" source="tvLHyavc6nxqDLxPzf1x-20" target="GQjXle8w0AGS4FvWoTMW-195" edge="1"><mxGeometry relative="1" as="geometry"><mxPoint x="310" y="327.5" as="targetPoint"/></mxGeometry></mxCell><mxCell id="tvLHyavc6nxqDLxPzf1x-20" value="打包产品" style="whiteSpace=wrap;html=1;fontSize=18;strokeWidth=1;rounded=1;" parent="1" vertex="1"><mxGeometry x="-450" y="650" width="120" height="60" as="geometry"/></mxCell><mxCell id="tvLHyavc6nxqDLxPzf1x-23" value="包装类型" style="ellipse;whiteSpace=wrap;html=1;fontSize=18;strokeWidth=1;" parent="1" vertex="1"><mxGeometry x="-625" y="910" width="95" height="40" as="geometry"/></mxCell><mxCell id="tvLHyavc6nxqDLxPzf1x-26" value="规格" style="ellipse;whiteSpace=wrap;html=1;fontSize=18;strokeWidth=1;" parent="1" vertex="1"><mxGeometry x="-702.5" y="890" width="85" height="40" as="geometry"/></mxCell><mxCell id="tvLHyavc6nxqDLxPzf1x-28" value="简介" style="ellipse;whiteSpace=wrap;html=1;fontSize=18;strokeWidth=1;direction=south;" parent="1" vertex="1"><mxGeometry x="-845" y="690" width="65" height="40" as="geometry"/></mxCell><mxCell id="tvLHyavc6nxqDLxPzf1x-30" value="简介" style="ellipse;whiteSpace=wrap;html=1;fontSize=18;strokeWidth=1;" parent="1" vertex="1"><mxGeometry x="-1100" y="60" width="120" height="60" as="geometry"/></mxCell><mxCell id="tvLHyavc6nxqDLxPzf1x-34" value="供方名称" style="ellipse;whiteSpace=wrap;html=1;fontSize=18;strokeWidth=1;" parent="1" vertex="1"><mxGeometry x="-815" y="630" width="85" height="50" as="geometry"/></mxCell><mxCell id="tvLHyavc6nxqDLxPzf1x-35" value="id" style="ellipse;whiteSpace=wrap;html=1;fontSize=18;strokeWidth=1;" parent="1" vertex="1"><mxGeometry x="-840" y="750" width="75" height="30" as="geometry"/></mxCell><mxCell id="tvLHyavc6nxqDLxPzf1x-39" value="防潮标识" style="ellipse;whiteSpace=wrap;html=1;fontSize=18;strokeWidth=1;" parent="1" vertex="1"><mxGeometry x="-780" y="870" width="100" height="40" as="geometry"/></mxCell><mxCell id="tvLHyavc6nxqDLxPzf1x-42" value="运输标志" style="ellipse;whiteSpace=wrap;html=1;fontSize=18;strokeWidth=1;" parent="1" vertex="1"><mxGeometry x="-440" y="945" width="90" height="45" as="geometry"/></mxCell><mxCell id="tvLHyavc6nxqDLxPzf1x-124" style="edgeStyle=none;shape=connector;rounded=0;orthogonalLoop=1;jettySize=auto;html=1;exitX=1;exitY=0.5;exitDx=0;exitDy=0;entryX=0;entryY=0.5;entryDx=0;entryDy=0;labelBackgroundColor=default;fontFamily=Helvetica;fontSize=18;fontColor=default;endArrow=none;strokeColor=default;" parent="1" source="tvLHyavc6nxqDLxPzf1x-95" target="tvLHyavc6nxqDLxPzf1x-123" edge="1"><mxGeometry relative="1" as="geometry"/></mxCell><mxCell id="tvLHyavc6nxqDLxPzf1x-95" value="出产矿物" style="whiteSpace=wrap;html=1;fontFamily=Helvetica;fontSize=18;fontColor=default;strokeWidth=1;rounded=1;arcSize=28;" parent="1" vertex="1"><mxGeometry x="10" y="175" width="90" height="50" as="geometry"/></mxCell><mxCell id="tvLHyavc6nxqDLxPzf1x-116" style="edgeStyle=none;shape=connector;rounded=0;orthogonalLoop=1;jettySize=auto;html=1;exitX=0.5;exitY=0;exitDx=0;exitDy=0;labelBackgroundColor=default;fontFamily=Helvetica;fontSize=18;fontColor=default;endArrow=none;strokeColor=default;" parent="1" source="tvLHyavc6nxqDLxPzf1x-98" target="tvLHyavc6nxqDLxPzf1x-110" edge="1"><mxGeometry relative="1" as="geometry"/></mxCell><mxCell id="tvLHyavc6nxqDLxPzf1x-154" style="edgeStyle=none;shape=connector;rounded=0;orthogonalLoop=1;jettySize=auto;html=1;exitX=0.5;exitY=1;exitDx=0;exitDy=0;entryX=0.5;entryY=0;entryDx=0;entryDy=0;labelBackgroundColor=default;fontFamily=Helvetica;fontSize=18;fontColor=default;endArrow=none;strokeColor=default;" parent="1" source="tvLHyavc6nxqDLxPzf1x-98" target="tvLHyavc6nxqDLxPzf1x-95" edge="1"><mxGeometry relative="1" as="geometry"/></mxCell><mxCell id="tvLHyavc6nxqDLxPzf1x-98" value="生产" style="rhombus;whiteSpace=wrap;html=1;rounded=1;fontFamily=Helvetica;fontSize=18;fontColor=default;strokeWidth=1;" parent="1" vertex="1"><mxGeometry x="-10" y="-60" width="60" height="45" as="geometry"/></mxCell><mxCell id="tvLHyavc6nxqDLxPzf1x-264" style="edgeStyle=none;shape=connector;rounded=0;orthogonalLoop=1;jettySize=auto;html=1;exitX=0.5;exitY=0;exitDx=0;exitDy=0;labelBackgroundColor=default;fontFamily=Helvetica;fontSize=18;fontColor=default;endArrow=none;strokeColor=default;" parent="1" source="tvLHyavc6nxqDLxPzf1x-99" target="tvLHyavc6nxqDLxPzf1x-95" edge="1"><mxGeometry relative="1" as="geometry"/></mxCell><mxCell id="tvLHyavc6nxqDLxPzf1x-270" style="edgeStyle=none;shape=connector;rounded=0;orthogonalLoop=1;jettySize=auto;html=1;exitX=0;exitY=1;exitDx=0;exitDy=0;entryX=1;entryY=0.25;entryDx=0;entryDy=0;labelBackgroundColor=default;fontFamily=Helvetica;fontSize=18;fontColor=default;endArrow=none;strokeColor=default;" parent="1" source="tvLHyavc6nxqDLxPzf1x-99" target="tvLHyavc6nxqDLxPzf1x-20" edge="1"><mxGeometry relative="1" as="geometry"/></mxCell><mxCell id="tvLHyavc6nxqDLxPzf1x-99" value="使用" style="rhombus;whiteSpace=wrap;html=1;rounded=1;fontFamily=Helvetica;fontSize=18;fontColor=default;strokeWidth=1;" parent="1" vertex="1"><mxGeometry x="-120" y="333.75" width="100" height="60" as="geometry"/></mxCell><mxCell id="tvLHyavc6nxqDLxPzf1x-111" style="edgeStyle=none;shape=connector;rounded=0;orthogonalLoop=1;jettySize=auto;html=1;exitX=0;exitY=0.5;exitDx=0;exitDy=0;entryX=1;entryY=0.25;entryDx=0;entryDy=0;labelBackgroundColor=default;fontFamily=Helvetica;fontSize=18;fontColor=default;endArrow=none;strokeColor=default;" parent="1" source="tvLHyavc6nxqDLxPzf1x-102" target="tvLHyavc6nxqDLxPzf1x-95" edge="1"><mxGeometry relative="1" as="geometry"/></mxCell><mxCell id="tvLHyavc6nxqDLxPzf1x-102" value="id" style="ellipse;whiteSpace=wrap;html=1;rounded=1;fontFamily=Helvetica;fontSize=18;fontColor=default;strokeWidth=1;" parent="1" vertex="1"><mxGeometry x="120" y="160" width="70" height="30" as="geometry"/></mxCell><mxCell id="tvLHyavc6nxqDLxPzf1x-104" style="edgeStyle=none;shape=connector;rounded=0;orthogonalLoop=1;jettySize=auto;html=1;exitX=0.5;exitY=0;exitDx=0;exitDy=0;entryX=0.5;entryY=1;entryDx=0;entryDy=0;labelBackgroundColor=default;fontFamily=Helvetica;fontSize=18;fontColor=default;endArrow=none;strokeColor=default;" parent="1" source="tvLHyavc6nxqDLxPzf1x-103" target="tvLHyavc6nxqDLxPzf1x-20" edge="1"><mxGeometry relative="1" as="geometry"/></mxCell><mxCell id="tvLHyavc6nxqDLxPzf1x-103" value="生产设备" style="ellipse;whiteSpace=wrap;html=1;rounded=1;fontFamily=Helvetica;fontSize=18;fontColor=default;strokeWidth=1;" parent="1" vertex="1"><mxGeometry x="-185" y="860" width="90" height="50" as="geometry"/></mxCell><mxCell id="tvLHyavc6nxqDLxPzf1x-112" style="edgeStyle=none;shape=connector;rounded=0;orthogonalLoop=1;jettySize=auto;html=1;exitX=0;exitY=0;exitDx=0;exitDy=0;labelBackgroundColor=default;fontFamily=Helvetica;fontSize=18;fontColor=default;endArrow=none;strokeColor=default;" parent="1" source="tvLHyavc6nxqDLxPzf1x-109" target="tvLHyavc6nxqDLxPzf1x-95" edge="1"><mxGeometry relative="1" as="geometry"/></mxCell><mxCell id="tvLHyavc6nxqDLxPzf1x-109" value="产地" style="ellipse;whiteSpace=wrap;html=1;rounded=1;fontFamily=Helvetica;fontSize=18;fontColor=default;strokeWidth=1;" parent="1" vertex="1"><mxGeometry x="115" y="270" width="90" height="45" as="geometry"/></mxCell><mxCell id="tvLHyavc6nxqDLxPzf1x-110" value="批号" style="ellipse;whiteSpace=wrap;html=1;rounded=1;fontFamily=Helvetica;fontSize=18;fontColor=default;strokeWidth=1;" parent="1" vertex="1"><mxGeometry x="-70" y="-90" width="80" height="30" as="geometry"/></mxCell><mxCell id="tvLHyavc6nxqDLxPzf1x-114" style="edgeStyle=none;shape=connector;rounded=0;orthogonalLoop=1;jettySize=auto;html=1;exitX=0.5;exitY=0;exitDx=0;exitDy=0;entryX=0.5;entryY=1;entryDx=0;entryDy=0;labelBackgroundColor=default;fontFamily=Helvetica;fontSize=18;fontColor=default;endArrow=none;strokeColor=default;" parent="1" source="tvLHyavc6nxqDLxPzf1x-113" target="tvLHyavc6nxqDLxPzf1x-95" edge="1"><mxGeometry relative="1" as="geometry"/></mxCell><mxCell id="tvLHyavc6nxqDLxPzf1x-113" value="简介" style="ellipse;whiteSpace=wrap;html=1;rounded=1;fontFamily=Helvetica;fontSize=18;fontColor=default;strokeWidth=1;" parent="1" vertex="1"><mxGeometry x="5" y="280" width="100" height="32.5" as="geometry"/></mxCell><mxCell id="tvLHyavc6nxqDLxPzf1x-126" style="edgeStyle=none;shape=connector;rounded=0;orthogonalLoop=1;jettySize=auto;html=1;exitX=1;exitY=0.5;exitDx=0;exitDy=0;entryX=0;entryY=0.5;entryDx=0;entryDy=0;labelBackgroundColor=default;fontFamily=Helvetica;fontSize=18;fontColor=default;endArrow=none;strokeColor=default;" parent="1" source="tvLHyavc6nxqDLxPzf1x-120" target="tvLHyavc6nxqDLxPzf1x-121" edge="1"><mxGeometry relative="1" as="geometry"/></mxCell><mxCell id="tvLHyavc6nxqDLxPzf1x-130" value="" style="edgeStyle=none;shape=connector;rounded=0;orthogonalLoop=1;jettySize=auto;html=1;labelBackgroundColor=default;fontFamily=Helvetica;fontSize=18;fontColor=default;endArrow=none;strokeColor=default;" parent="1" source="tvLHyavc6nxqDLxPzf1x-120" target="tvLHyavc6nxqDLxPzf1x-129" edge="1"><mxGeometry relative="1" as="geometry"/></mxCell><mxCell id="GQjXle8w0AGS4FvWoTMW-193" style="edgeStyle=none;rounded=0;orthogonalLoop=1;jettySize=auto;html=1;exitX=0.25;exitY=1;exitDx=0;exitDy=0;entryX=0.5;entryY=0;entryDx=0;entryDy=0;fontSize=18;endArrow=none;endFill=0;" parent="1" source="tvLHyavc6nxqDLxPzf1x-120" target="tvLHyavc6nxqDLxPzf1x-123" edge="1"><mxGeometry relative="1" as="geometry"/></mxCell><mxCell id="tvLHyavc6nxqDLxPzf1x-120" value="矿物" style="whiteSpace=wrap;html=1;rounded=1;fontFamily=Helvetica;fontSize=18;fontColor=default;strokeWidth=1;" parent="1" vertex="1"><mxGeometry x="215" y="170" width="75" height="35" as="geometry"/></mxCell><mxCell id="tvLHyavc6nxqDLxPzf1x-121" value="简介" style="ellipse;whiteSpace=wrap;html=1;rounded=1;fontFamily=Helvetica;fontSize=18;fontColor=default;strokeWidth=1;" parent="1" vertex="1"><mxGeometry x="317.5" y="177.5" width="65" height="35" as="geometry"/></mxCell><mxCell id="tvLHyavc6nxqDLxPzf1x-123" value="使用" style="rhombus;whiteSpace=wrap;html=1;rounded=1;fontFamily=Helvetica;fontSize=18;fontColor=default;strokeWidth=1;" parent="1" vertex="1"><mxGeometry x="170" y="225" width="100" height="50" as="geometry"/></mxCell><mxCell id="tvLHyavc6nxqDLxPzf1x-129" value="id" style="ellipse;whiteSpace=wrap;html=1;fontSize=18;rounded=1;strokeWidth=1;" parent="1" vertex="1"><mxGeometry x="310" y="120" width="80" height="35" as="geometry"/></mxCell><mxCell id="tvLHyavc6nxqDLxPzf1x-132" style="edgeStyle=none;shape=connector;rounded=0;orthogonalLoop=1;jettySize=auto;html=1;exitX=0.5;exitY=0;exitDx=0;exitDy=0;entryX=0.5;entryY=1;entryDx=0;entryDy=0;labelBackgroundColor=default;fontFamily=Helvetica;fontSize=18;fontColor=default;endArrow=none;strokeColor=default;" parent="1" source="tvLHyavc6nxqDLxPzf1x-131" target="tvLHyavc6nxqDLxPzf1x-20" edge="1"><mxGeometry relative="1" as="geometry"/></mxCell><mxCell id="tvLHyavc6nxqDLxPzf1x-131" value="纯度" style="ellipse;whiteSpace=wrap;html=1;rounded=1;fontFamily=Helvetica;fontSize=18;fontColor=default;strokeWidth=1;" parent="1" vertex="1"><mxGeometry x="-270" y="900" width="80" height="40" as="geometry"/></mxCell><mxCell id="tvLHyavc6nxqDLxPzf1x-168" style="edgeStyle=none;shape=connector;rounded=0;orthogonalLoop=1;jettySize=auto;html=1;exitX=1;exitY=0.5;exitDx=0;exitDy=0;labelBackgroundColor=default;fontFamily=Helvetica;fontSize=18;fontColor=default;endArrow=none;strokeColor=default;" parent="1" source="tvLHyavc6nxqDLxPzf1x-136" target="tvLHyavc6nxqDLxPzf1x-159" edge="1"><mxGeometry relative="1" as="geometry"/></mxCell><mxCell id="tvLHyavc6nxqDLxPzf1x-136" value="电话号码" style="ellipse;whiteSpace=wrap;html=1;rounded=1;fontFamily=Helvetica;fontSize=18;fontColor=default;strokeWidth=1;" parent="1" vertex="1"><mxGeometry x="-590" y="220" width="90" height="50" as="geometry"/></mxCell><mxCell id="tvLHyavc6nxqDLxPzf1x-239" style="edgeStyle=none;shape=connector;rounded=0;orthogonalLoop=1;jettySize=auto;html=1;exitX=1;exitY=0.5;exitDx=0;exitDy=0;entryX=0;entryY=0.25;entryDx=0;entryDy=0;labelBackgroundColor=default;fontFamily=Helvetica;fontSize=18;fontColor=default;endArrow=none;strokeColor=default;" parent="1" source="tvLHyavc6nxqDLxPzf1x-141" target="tvLHyavc6nxqDLxPzf1x-216" edge="1"><mxGeometry relative="1" as="geometry"/></mxCell><mxCell id="tvLHyavc6nxqDLxPzf1x-141" value="安排" style="rhombus;whiteSpace=wrap;html=1;rounded=1;fontFamily=Helvetica;fontSize=18;fontColor=default;strokeWidth=1;" parent="1" vertex="1"><mxGeometry x="-477.5" y="80" width="85" height="65" as="geometry"/></mxCell><mxCell id="tvLHyavc6nxqDLxPzf1x-142" style="edgeStyle=none;shape=connector;rounded=0;orthogonalLoop=1;jettySize=auto;html=1;exitX=1;exitY=1;exitDx=0;exitDy=0;labelBackgroundColor=default;fontFamily=Helvetica;fontSize=18;fontColor=default;endArrow=none;strokeColor=default;" parent="1" source="tvLHyavc6nxqDLxPzf1x-141" target="tvLHyavc6nxqDLxPzf1x-141" edge="1"><mxGeometry relative="1" as="geometry"/></mxCell><mxCell id="tvLHyavc6nxqDLxPzf1x-169" style="edgeStyle=none;shape=connector;rounded=0;orthogonalLoop=1;jettySize=auto;html=1;exitX=1;exitY=1;exitDx=0;exitDy=0;labelBackgroundColor=default;fontFamily=Helvetica;fontSize=18;fontColor=default;endArrow=none;strokeColor=default;" parent="1" source="tvLHyavc6nxqDLxPzf1x-145" target="tvLHyavc6nxqDLxPzf1x-159" edge="1"><mxGeometry relative="1" as="geometry"/></mxCell><mxCell id="tvLHyavc6nxqDLxPzf1x-145" value="姓名" style="ellipse;whiteSpace=wrap;html=1;rounded=1;fontFamily=Helvetica;fontSize=18;fontColor=default;strokeWidth=1;" parent="1" vertex="1"><mxGeometry x="-520" y="160" width="70" height="55" as="geometry"/></mxCell><mxCell id="tvLHyavc6nxqDLxPzf1x-147" value="id" style="ellipse;whiteSpace=wrap;html=1;rounded=1;fontFamily=Helvetica;fontSize=18;fontColor=default;strokeWidth=1;" parent="1" vertex="1"><mxGeometry x="-440" y="160" width="60" height="30" as="geometry"/></mxCell><mxCell id="tvLHyavc6nxqDLxPzf1x-249" style="edgeStyle=none;shape=connector;rounded=0;orthogonalLoop=1;jettySize=auto;html=1;exitX=1;exitY=0;exitDx=0;exitDy=0;entryX=0;entryY=0.5;entryDx=0;entryDy=0;labelBackgroundColor=default;fontFamily=Helvetica;fontSize=18;fontColor=default;endArrow=none;strokeColor=default;" parent="1" source="tvLHyavc6nxqDLxPzf1x-157" target="tvLHyavc6nxqDLxPzf1x-10" edge="1"><mxGeometry relative="1" as="geometry"/></mxCell><mxCell id="tvLHyavc6nxqDLxPzf1x-157" value="提取方法" style="ellipse;whiteSpace=wrap;html=1;rounded=1;fontFamily=Helvetica;fontSize=18;fontColor=default;strokeWidth=1;" parent="1" vertex="1"><mxGeometry x="-787.5" y="340" width="80" height="37.5" as="geometry"/></mxCell><mxCell id="tvLHyavc6nxqDLxPzf1x-188" style="edgeStyle=none;shape=connector;rounded=0;orthogonalLoop=1;jettySize=auto;html=1;exitX=0.5;exitY=0;exitDx=0;exitDy=0;entryX=0.5;entryY=1;entryDx=0;entryDy=0;labelBackgroundColor=default;fontFamily=Helvetica;fontSize=18;fontColor=default;endArrow=none;strokeColor=default;" parent="1" source="tvLHyavc6nxqDLxPzf1x-159" target="tvLHyavc6nxqDLxPzf1x-147" edge="1"><mxGeometry relative="1" as="geometry"/></mxCell><mxCell id="tvLHyavc6nxqDLxPzf1x-215" style="edgeStyle=none;shape=connector;rounded=0;orthogonalLoop=1;jettySize=auto;html=1;exitX=1;exitY=0;exitDx=0;exitDy=0;entryX=0;entryY=0.5;entryDx=0;entryDy=0;labelBackgroundColor=default;fontFamily=Helvetica;fontSize=18;fontColor=default;endArrow=none;strokeColor=default;" parent="1" source="tvLHyavc6nxqDLxPzf1x-159" target="tvLHyavc6nxqDLxPzf1x-214" edge="1"><mxGeometry relative="1" as="geometry"/></mxCell><mxCell id="tvLHyavc6nxqDLxPzf1x-258" style="edgeStyle=none;shape=connector;rounded=0;orthogonalLoop=1;jettySize=auto;html=1;exitX=0.5;exitY=1;exitDx=0;exitDy=0;entryX=0.5;entryY=0;entryDx=0;entryDy=0;labelBackgroundColor=default;fontFamily=Helvetica;fontSize=18;fontColor=default;endArrow=none;strokeColor=default;" parent="1" source="tvLHyavc6nxqDLxPzf1x-159" target="tvLHyavc6nxqDLxPzf1x-236" edge="1"><mxGeometry relative="1" as="geometry"/></mxCell><mxCell id="tvLHyavc6nxqDLxPzf1x-159" value="运输人员" style="whiteSpace=wrap;html=1;rounded=1;fontFamily=Helvetica;fontSize=18;fontColor=default;strokeWidth=1;" parent="1" vertex="1"><mxGeometry x="-485" y="297.5" width="100" height="50" as="geometry"/></mxCell><mxCell id="tvLHyavc6nxqDLxPzf1x-204" style="edgeStyle=none;shape=connector;rounded=0;orthogonalLoop=1;jettySize=auto;html=1;entryX=0;entryY=0.5;entryDx=0;entryDy=0;labelBackgroundColor=default;fontFamily=Helvetica;fontSize=18;fontColor=default;endArrow=none;strokeColor=default;" parent="1" source="tvLHyavc6nxqDLxPzf1x-172" target="tvLHyavc6nxqDLxPzf1x-9" edge="1"><mxGeometry relative="1" as="geometry"/></mxCell><mxCell id="tvLHyavc6nxqDLxPzf1x-172" value="类型" style="ellipse;whiteSpace=wrap;html=1;rounded=1;fontFamily=Helvetica;fontSize=18;fontColor=default;strokeWidth=1;" parent="1" vertex="1"><mxGeometry x="-1110" y="130" width="120" height="60" as="geometry"/></mxCell><mxCell id="tvLHyavc6nxqDLxPzf1x-180" style="edgeStyle=none;shape=connector;rounded=0;orthogonalLoop=1;jettySize=auto;html=1;exitX=0.5;exitY=1;exitDx=0;exitDy=0;labelBackgroundColor=default;fontFamily=Helvetica;fontSize=18;fontColor=default;endArrow=none;strokeColor=default;" parent="1" source="tvLHyavc6nxqDLxPzf1x-178" target="tvLHyavc6nxqDLxPzf1x-20" edge="1"><mxGeometry relative="1" as="geometry"/></mxCell><mxCell id="tvLHyavc6nxqDLxPzf1x-178" value="负责" style="rhombus;whiteSpace=wrap;html=1;rounded=1;fontFamily=Helvetica;fontSize=18;fontColor=default;strokeWidth=1;" parent="1" vertex="1"><mxGeometry x="-230" y="370" width="100" height="65" as="geometry"/></mxCell><mxCell id="tvLHyavc6nxqDLxPzf1x-186" style="edgeStyle=none;shape=connector;rounded=0;orthogonalLoop=1;jettySize=auto;html=1;exitX=1;exitY=0.5;exitDx=0;exitDy=0;entryX=0;entryY=0.5;entryDx=0;entryDy=0;labelBackgroundColor=default;fontFamily=Helvetica;fontSize=18;fontColor=default;endArrow=none;strokeColor=default;" parent="1" source="tvLHyavc6nxqDLxPzf1x-182" target="tvLHyavc6nxqDLxPzf1x-95" edge="1"><mxGeometry relative="1" as="geometry"/></mxCell><mxCell id="tvLHyavc6nxqDLxPzf1x-182" value="负责" style="rhombus;whiteSpace=wrap;html=1;rounded=1;fontFamily=Helvetica;fontSize=18;fontColor=default;strokeWidth=1;" parent="1" vertex="1"><mxGeometry x="-140" y="190" width="95" height="40" as="geometry"/></mxCell><mxCell id="tvLHyavc6nxqDLxPzf1x-189" value="物料配比" style="ellipse;whiteSpace=wrap;html=1;rounded=1;fontFamily=Helvetica;fontSize=18;fontColor=default;strokeWidth=1;" parent="1" vertex="1"><mxGeometry x="-120" y="815" width="110" height="50" as="geometry"/></mxCell><mxCell id="tvLHyavc6nxqDLxPzf1x-203" style="edgeStyle=none;shape=connector;rounded=0;orthogonalLoop=1;jettySize=auto;html=1;exitX=1;exitY=0.5;exitDx=0;exitDy=0;entryX=0;entryY=0;entryDx=0;entryDy=0;labelBackgroundColor=default;fontFamily=Helvetica;fontSize=18;fontColor=default;endArrow=none;strokeColor=default;" parent="1" source="tvLHyavc6nxqDLxPzf1x-192" target="tvLHyavc6nxqDLxPzf1x-196" edge="1"><mxGeometry relative="1" as="geometry"/></mxCell><mxCell id="tvLHyavc6nxqDLxPzf1x-192" value="流水号" style="ellipse;whiteSpace=wrap;html=1;rounded=1;fontFamily=Helvetica;fontSize=18;fontColor=default;strokeWidth=1;" parent="1" vertex="1"><mxGeometry x="-1060" y="265" width="80" height="40" as="geometry"/></mxCell><mxCell id="tvLHyavc6nxqDLxPzf1x-234" style="edgeStyle=none;shape=connector;rounded=0;orthogonalLoop=1;jettySize=auto;html=1;exitX=0;exitY=0.25;exitDx=0;exitDy=0;entryX=1;entryY=0.5;entryDx=0;entryDy=0;labelBackgroundColor=default;fontFamily=Helvetica;fontSize=18;fontColor=default;endArrow=none;strokeColor=default;" parent="1" source="tvLHyavc6nxqDLxPzf1x-195" target="tvLHyavc6nxqDLxPzf1x-207" edge="1"><mxGeometry relative="1" as="geometry"/></mxCell><mxCell id="GQjXle8w0AGS4FvWoTMW-204" style="edgeStyle=none;rounded=0;orthogonalLoop=1;jettySize=auto;html=1;exitX=0;exitY=0;exitDx=0;exitDy=0;entryX=0.5;entryY=1;entryDx=0;entryDy=0;fontSize=18;endArrow=none;endFill=0;" parent="1" source="tvLHyavc6nxqDLxPzf1x-195" target="GQjXle8w0AGS4FvWoTMW-203" edge="1"><mxGeometry relative="1" as="geometry"/></mxCell><mxCell id="tvLHyavc6nxqDLxPzf1x-195" value="需求商" style="whiteSpace=wrap;html=1;rounded=1;fontFamily=Helvetica;fontSize=18;fontColor=default;strokeWidth=1;" parent="1" vertex="1"><mxGeometry x="-1040" y="440" width="90" height="40" as="geometry"/></mxCell><mxCell id="tvLHyavc6nxqDLxPzf1x-200" style="edgeStyle=none;shape=connector;rounded=0;orthogonalLoop=1;jettySize=auto;html=1;exitX=0;exitY=1;exitDx=0;exitDy=0;labelBackgroundColor=default;fontFamily=Helvetica;fontSize=18;fontColor=default;endArrow=none;strokeColor=default;" parent="1" source="tvLHyavc6nxqDLxPzf1x-196" target="tvLHyavc6nxqDLxPzf1x-195" edge="1"><mxGeometry relative="1" as="geometry"/></mxCell><mxCell id="tvLHyavc6nxqDLxPzf1x-196" value="提供" style="rhombus;whiteSpace=wrap;html=1;rounded=1;fontFamily=Helvetica;fontSize=18;fontColor=default;strokeWidth=1;" parent="1" vertex="1"><mxGeometry x="-890" y="315" width="100" height="70" as="geometry"/></mxCell><mxCell id="tvLHyavc6nxqDLxPzf1x-206" style="edgeStyle=none;shape=connector;rounded=0;orthogonalLoop=1;jettySize=auto;html=1;exitX=1;exitY=0.5;exitDx=0;exitDy=0;entryX=0.133;entryY=0.381;entryDx=0;entryDy=0;entryPerimeter=0;labelBackgroundColor=default;fontFamily=Helvetica;fontSize=18;fontColor=default;endArrow=none;strokeColor=default;" parent="1" source="tvLHyavc6nxqDLxPzf1x-205" target="tvLHyavc6nxqDLxPzf1x-196" edge="1"><mxGeometry relative="1" as="geometry"/></mxCell><mxCell id="tvLHyavc6nxqDLxPzf1x-205" value="时间" style="ellipse;whiteSpace=wrap;html=1;rounded=1;fontFamily=Helvetica;fontSize=18;fontColor=default;strokeWidth=1;" parent="1" vertex="1"><mxGeometry x="-1085" y="325" width="90" height="50" as="geometry"/></mxCell><mxCell id="tvLHyavc6nxqDLxPzf1x-207" value="联系方式" style="ellipse;whiteSpace=wrap;html=1;rounded=1;fontFamily=Helvetica;fontSize=18;fontColor=default;strokeWidth=1;" parent="1" vertex="1"><mxGeometry x="-1240" y="410" width="90" height="40" as="geometry"/></mxCell><mxCell id="tvLHyavc6nxqDLxPzf1x-233" style="edgeStyle=none;shape=connector;rounded=0;orthogonalLoop=1;jettySize=auto;html=1;exitX=1;exitY=0;exitDx=0;exitDy=0;entryX=0;entryY=0.5;entryDx=0;entryDy=0;labelBackgroundColor=default;fontFamily=Helvetica;fontSize=18;fontColor=default;endArrow=none;strokeColor=default;" parent="1" source="tvLHyavc6nxqDLxPzf1x-208" target="tvLHyavc6nxqDLxPzf1x-195" edge="1"><mxGeometry relative="1" as="geometry"/></mxCell><mxCell id="tvLHyavc6nxqDLxPzf1x-208" value="id" style="ellipse;whiteSpace=wrap;html=1;rounded=1;fontFamily=Helvetica;fontSize=18;fontColor=default;strokeWidth=1;" parent="1" vertex="1"><mxGeometry x="-1250" y="480" width="90" height="30" as="geometry"/></mxCell><mxCell id="tvLHyavc6nxqDLxPzf1x-235" style="edgeStyle=none;shape=connector;rounded=0;orthogonalLoop=1;jettySize=auto;html=1;exitX=1;exitY=0;exitDx=0;exitDy=0;entryX=0.25;entryY=1;entryDx=0;entryDy=0;labelBackgroundColor=default;fontFamily=Helvetica;fontSize=18;fontColor=default;endArrow=none;strokeColor=default;" parent="1" source="tvLHyavc6nxqDLxPzf1x-211" target="tvLHyavc6nxqDLxPzf1x-195" edge="1"><mxGeometry relative="1" as="geometry"/></mxCell><mxCell id="tvLHyavc6nxqDLxPzf1x-211" value="姓名" style="ellipse;whiteSpace=wrap;html=1;rounded=1;fontFamily=Helvetica;fontSize=18;fontColor=default;strokeWidth=1;" parent="1" vertex="1"><mxGeometry x="-1210" y="530" width="100" height="30" as="geometry"/></mxCell><mxCell id="tvLHyavc6nxqDLxPzf1x-212" value="地址" style="ellipse;whiteSpace=wrap;html=1;rounded=1;fontFamily=Helvetica;fontSize=18;fontColor=default;strokeWidth=1;" parent="1" vertex="1"><mxGeometry x="-880" y="-130" width="120" height="60" as="geometry"/></mxCell><mxCell id="tvLHyavc6nxqDLxPzf1x-214" value="性别" style="ellipse;whiteSpace=wrap;html=1;rounded=1;fontFamily=Helvetica;fontSize=18;fontColor=default;strokeWidth=1;" parent="1" vertex="1"><mxGeometry x="-300" y="190" width="70" height="40" as="geometry"/></mxCell><mxCell id="tvLHyavc6nxqDLxPzf1x-231" style="edgeStyle=none;shape=connector;rounded=0;orthogonalLoop=1;jettySize=auto;html=1;exitX=1;exitY=0;exitDx=0;exitDy=0;entryX=0;entryY=1;entryDx=0;entryDy=0;labelBackgroundColor=default;fontFamily=Helvetica;fontSize=18;fontColor=default;endArrow=none;strokeColor=default;" parent="1" source="tvLHyavc6nxqDLxPzf1x-216" target="tvLHyavc6nxqDLxPzf1x-230" edge="1"><mxGeometry relative="1" as="geometry"/></mxCell><mxCell id="tvLHyavc6nxqDLxPzf1x-232" style="edgeStyle=none;shape=connector;rounded=0;orthogonalLoop=1;jettySize=auto;html=1;exitX=0.75;exitY=0;exitDx=0;exitDy=0;entryX=1;entryY=1;entryDx=0;entryDy=0;labelBackgroundColor=default;fontFamily=Helvetica;fontSize=18;fontColor=default;endArrow=none;strokeColor=default;" parent="1" source="tvLHyavc6nxqDLxPzf1x-216" target="tvLHyavc6nxqDLxPzf1x-225" edge="1"><mxGeometry relative="1" as="geometry"/></mxCell><mxCell id="tvLHyavc6nxqDLxPzf1x-245" style="edgeStyle=none;shape=connector;rounded=0;orthogonalLoop=1;jettySize=auto;html=1;exitX=0.5;exitY=1;exitDx=0;exitDy=0;labelBackgroundColor=default;fontFamily=Helvetica;fontSize=18;fontColor=default;endArrow=none;strokeColor=default;" parent="1" source="tvLHyavc6nxqDLxPzf1x-216" target="tvLHyavc6nxqDLxPzf1x-178" edge="1"><mxGeometry relative="1" as="geometry"/></mxCell><mxCell id="tvLHyavc6nxqDLxPzf1x-246" style="edgeStyle=none;shape=connector;rounded=0;orthogonalLoop=1;jettySize=auto;html=1;exitX=1;exitY=0.5;exitDx=0;exitDy=0;entryX=0;entryY=0.5;entryDx=0;entryDy=0;labelBackgroundColor=default;fontFamily=Helvetica;fontSize=18;fontColor=default;endArrow=none;strokeColor=default;" parent="1" source="tvLHyavc6nxqDLxPzf1x-216" target="tvLHyavc6nxqDLxPzf1x-182" edge="1"><mxGeometry relative="1" as="geometry"/></mxCell><mxCell id="tvLHyavc6nxqDLxPzf1x-216" value="负责人" style="whiteSpace=wrap;html=1;rounded=1;fontFamily=Helvetica;fontSize=18;fontColor=default;strokeWidth=1;" parent="1" vertex="1"><mxGeometry x="-250" y="125" width="90" height="50" as="geometry"/></mxCell><mxCell id="tvLHyavc6nxqDLxPzf1x-227" style="edgeStyle=none;shape=connector;rounded=0;orthogonalLoop=1;jettySize=auto;html=1;exitX=0.5;exitY=1;exitDx=0;exitDy=0;entryX=0.25;entryY=0;entryDx=0;entryDy=0;labelBackgroundColor=default;fontFamily=Helvetica;fontSize=18;fontColor=default;endArrow=none;strokeColor=default;" parent="1" source="tvLHyavc6nxqDLxPzf1x-220" target="tvLHyavc6nxqDLxPzf1x-216" edge="1"><mxGeometry relative="1" as="geometry"/></mxCell><mxCell id="tvLHyavc6nxqDLxPzf1x-220" value="性别" style="ellipse;whiteSpace=wrap;html=1;rounded=1;fontFamily=Helvetica;fontSize=18;fontColor=default;strokeWidth=1;" parent="1" vertex="1"><mxGeometry x="-305" y="20" width="60" height="40" as="geometry"/></mxCell><mxCell id="tvLHyavc6nxqDLxPzf1x-228" style="edgeStyle=none;shape=connector;rounded=0;orthogonalLoop=1;jettySize=auto;html=1;exitX=0.5;exitY=1;exitDx=0;exitDy=0;labelBackgroundColor=default;fontFamily=Helvetica;fontSize=18;fontColor=default;endArrow=none;strokeColor=default;" parent="1" source="tvLHyavc6nxqDLxPzf1x-224" target="tvLHyavc6nxqDLxPzf1x-216" edge="1"><mxGeometry relative="1" as="geometry"><Array as="points"><mxPoint x="-450" y="60"/></Array></mxGeometry></mxCell><mxCell id="tvLHyavc6nxqDLxPzf1x-224" value="id" style="ellipse;whiteSpace=wrap;html=1;rounded=1;fontFamily=Helvetica;fontSize=18;fontColor=default;strokeWidth=1;" parent="1" vertex="1"><mxGeometry x="-180" y="5" width="60" height="30" as="geometry"/></mxCell><mxCell id="tvLHyavc6nxqDLxPzf1x-225" value="姓名" style="ellipse;whiteSpace=wrap;html=1;rounded=1;fontFamily=Helvetica;fontSize=18;fontColor=default;strokeWidth=1;direction=south;" parent="1" vertex="1"><mxGeometry x="-110" y="20" width="60" height="40" as="geometry"/></mxCell><mxCell id="tvLHyavc6nxqDLxPzf1x-230" value="电话号码" style="ellipse;whiteSpace=wrap;html=1;rounded=1;fontFamily=Helvetica;fontSize=18;fontColor=default;strokeWidth=1;" parent="1" vertex="1"><mxGeometry x="-50" y="35" width="80" height="40" as="geometry"/></mxCell><mxCell id="tvLHyavc6nxqDLxPzf1x-248" style="edgeStyle=none;shape=connector;rounded=0;orthogonalLoop=1;jettySize=auto;html=1;exitX=1;exitY=0;exitDx=0;exitDy=0;entryX=0;entryY=1;entryDx=0;entryDy=0;labelBackgroundColor=default;fontFamily=Helvetica;fontSize=18;fontColor=default;endArrow=none;strokeColor=default;" parent="1" source="tvLHyavc6nxqDLxPzf1x-236" target="tvLHyavc6nxqDLxPzf1x-247" edge="1"><mxGeometry relative="1" as="geometry"/></mxCell><mxCell id="tvLHyavc6nxqDLxPzf1x-251" style="edgeStyle=none;shape=connector;rounded=0;orthogonalLoop=1;jettySize=auto;html=1;exitX=1;exitY=0.5;exitDx=0;exitDy=0;entryX=0;entryY=0.5;entryDx=0;entryDy=0;labelBackgroundColor=default;fontFamily=Helvetica;fontSize=18;fontColor=default;endArrow=none;strokeColor=default;" parent="1" source="tvLHyavc6nxqDLxPzf1x-236" target="tvLHyavc6nxqDLxPzf1x-250" edge="1"><mxGeometry relative="1" as="geometry"/></mxCell><mxCell id="tvLHyavc6nxqDLxPzf1x-259" style="edgeStyle=none;shape=connector;rounded=0;orthogonalLoop=1;jettySize=auto;html=1;exitX=0.5;exitY=1;exitDx=0;exitDy=0;entryX=0.25;entryY=0;entryDx=0;entryDy=0;labelBackgroundColor=default;fontFamily=Helvetica;fontSize=18;fontColor=default;endArrow=none;strokeColor=default;" parent="1" source="tvLHyavc6nxqDLxPzf1x-236" target="tvLHyavc6nxqDLxPzf1x-20" edge="1"><mxGeometry relative="1" as="geometry"/></mxCell><mxCell id="tvLHyavc6nxqDLxPzf1x-260" style="edgeStyle=none;shape=connector;rounded=0;orthogonalLoop=1;jettySize=auto;html=1;exitX=1;exitY=1;exitDx=0;exitDy=0;entryX=0;entryY=0;entryDx=0;entryDy=0;labelBackgroundColor=default;fontFamily=Helvetica;fontSize=18;fontColor=default;endArrow=none;strokeColor=default;" parent="1" source="tvLHyavc6nxqDLxPzf1x-236" target="tvLHyavc6nxqDLxPzf1x-253" edge="1"><mxGeometry relative="1" as="geometry"/></mxCell><mxCell id="tvLHyavc6nxqDLxPzf1x-261" style="edgeStyle=none;shape=connector;rounded=0;orthogonalLoop=1;jettySize=auto;html=1;entryX=0;entryY=0.5;entryDx=0;entryDy=0;labelBackgroundColor=default;fontFamily=Helvetica;fontSize=18;fontColor=default;endArrow=none;strokeColor=default;" parent="1" target="tvLHyavc6nxqDLxPzf1x-255" edge="1"><mxGeometry relative="1" as="geometry"><mxPoint x="-430" y="430" as="sourcePoint"/></mxGeometry></mxCell><mxCell id="tvLHyavc6nxqDLxPzf1x-236" value="运输" style="rhombus;whiteSpace=wrap;html=1;rounded=1;fontFamily=Helvetica;fontSize=18;fontColor=default;strokeWidth=1;" parent="1" vertex="1"><mxGeometry x="-500" y="410" width="80" height="50" as="geometry"/></mxCell><mxCell id="tvLHyavc6nxqDLxPzf1x-247" value="运输方式" style="ellipse;whiteSpace=wrap;html=1;rounded=1;fontFamily=Helvetica;fontSize=18;fontColor=default;strokeWidth=1;" parent="1" vertex="1"><mxGeometry x="-305" y="270" width="80" height="45" as="geometry"/></mxCell><mxCell id="tvLHyavc6nxqDLxPzf1x-250" value="运输终点" style="ellipse;whiteSpace=wrap;html=1;rounded=1;fontFamily=Helvetica;fontSize=18;fontColor=default;strokeWidth=1;" parent="1" vertex="1"><mxGeometry x="-350" y="400" width="90" height="30" as="geometry"/></mxCell><mxCell id="tvLHyavc6nxqDLxPzf1x-253" value="运输单号" style="ellipse;whiteSpace=wrap;html=1;rounded=1;fontFamily=Helvetica;fontSize=18;fontColor=default;strokeWidth=1;" parent="1" vertex="1"><mxGeometry x="-410" y="500" width="80" height="40" as="geometry"/></mxCell><mxCell id="tvLHyavc6nxqDLxPzf1x-255" value="运输时间" style="ellipse;whiteSpace=wrap;html=1;rounded=1;fontFamily=Helvetica;fontSize=18;fontColor=default;strokeWidth=1;" parent="1" vertex="1"><mxGeometry x="-350" y="460" width="90" height="40" as="geometry"/></mxCell><mxCell id="tvLHyavc6nxqDLxPzf1x-257" style="edgeStyle=none;shape=connector;rounded=0;orthogonalLoop=1;jettySize=auto;html=1;exitX=0;exitY=0.5;exitDx=0;exitDy=0;entryX=0;entryY=0;entryDx=0;entryDy=0;labelBackgroundColor=default;fontFamily=Helvetica;fontSize=18;fontColor=default;endArrow=none;strokeColor=default;" parent="1" source="tvLHyavc6nxqDLxPzf1x-236" target="tvLHyavc6nxqDLxPzf1x-236" edge="1"><mxGeometry relative="1" as="geometry"/></mxCell><mxCell id="tvLHyavc6nxqDLxPzf1x-263" style="edgeStyle=none;shape=connector;rounded=0;orthogonalLoop=1;jettySize=auto;html=1;exitX=1;exitY=1;exitDx=0;exitDy=0;entryX=0;entryY=0.5;entryDx=0;entryDy=0;labelBackgroundColor=default;fontFamily=Helvetica;fontSize=18;fontColor=default;endArrow=none;strokeColor=default;" parent="1" source="tvLHyavc6nxqDLxPzf1x-262" target="tvLHyavc6nxqDLxPzf1x-236" edge="1"><mxGeometry relative="1" as="geometry"/></mxCell><mxCell id="tvLHyavc6nxqDLxPzf1x-262" value="运输单位" style="ellipse;whiteSpace=wrap;html=1;rounded=1;fontFamily=Helvetica;fontSize=18;fontColor=default;strokeWidth=1;" parent="1" vertex="1"><mxGeometry x="-590" y="360" width="80" height="40" as="geometry"/></mxCell><mxCell id="tvLHyavc6nxqDLxPzf1x-265" value="提取单位" style="ellipse;whiteSpace=wrap;html=1;rounded=1;fontFamily=Helvetica;fontSize=18;fontColor=default;strokeWidth=1;" parent="1" vertex="1"><mxGeometry x="-45" y="760" width="100" height="50" as="geometry"/></mxCell><mxCell id="tvLHyavc6nxqDLxPzf1x-268" value="电话号码" style="ellipse;whiteSpace=wrap;html=1;rounded=1;fontFamily=Helvetica;fontSize=18;fontColor=default;strokeWidth=1;" parent="1" vertex="1"><mxGeometry x="-760" y="-130" width="120" height="60" as="geometry"/></mxCell><mxCell id="GQjXle8w0AGS4FvWoTMW-50" style="edgeStyle=none;rounded=0;orthogonalLoop=1;jettySize=auto;html=1;exitX=1;exitY=0.75;exitDx=0;exitDy=0;entryX=0;entryY=0.5;entryDx=0;entryDy=0;fontSize=18;endArrow=none;endFill=0;" parent="1" source="GQjXle8w0AGS4FvWoTMW-1" target="GQjXle8w0AGS4FvWoTMW-49" edge="1"><mxGeometry relative="1" as="geometry"/></mxCell><mxCell id="GQjXle8w0AGS4FvWoTMW-51" style="edgeStyle=none;rounded=0;orthogonalLoop=1;jettySize=auto;html=1;exitX=1;exitY=0;exitDx=0;exitDy=0;entryX=0;entryY=1;entryDx=0;entryDy=0;fontSize=18;endArrow=none;endFill=0;" parent="1" source="GQjXle8w0AGS4FvWoTMW-1" target="GQjXle8w0AGS4FvWoTMW-17" edge="1"><mxGeometry relative="1" as="geometry"/></mxCell><mxCell id="GQjXle8w0AGS4FvWoTMW-150" style="edgeStyle=none;rounded=0;orthogonalLoop=1;jettySize=auto;html=1;exitX=0.75;exitY=0;exitDx=0;exitDy=0;entryX=0.5;entryY=1;entryDx=0;entryDy=0;fontSize=18;endArrow=none;endFill=0;" parent="1" source="GQjXle8w0AGS4FvWoTMW-1" target="GQjXle8w0AGS4FvWoTMW-149" edge="1"><mxGeometry relative="1" as="geometry"/></mxCell><mxCell id="GQjXle8w0AGS4FvWoTMW-194" style="edgeStyle=none;rounded=0;orthogonalLoop=1;jettySize=auto;html=1;exitX=1;exitY=0.75;exitDx=0;exitDy=0;fontSize=18;endArrow=none;endFill=0;" parent="1" source="GQjXle8w0AGS4FvWoTMW-1" target="GQjXle8w0AGS4FvWoTMW-195" edge="1"><mxGeometry relative="1" as="geometry"><mxPoint x="330.00000000000045" y="-20" as="targetPoint"/></mxGeometry></mxCell><mxCell id="GQjXle8w0AGS4FvWoTMW-241" style="edgeStyle=none;rounded=0;orthogonalLoop=1;jettySize=auto;html=1;exitX=1;exitY=0.25;exitDx=0;exitDy=0;entryX=0;entryY=0.75;entryDx=0;entryDy=0;fontSize=18;endArrow=none;endFill=0;" parent="1" source="GQjXle8w0AGS4FvWoTMW-1" target="GQjXle8w0AGS4FvWoTMW-82" edge="1"><mxGeometry relative="1" as="geometry"/></mxCell><mxCell id="GQjXle8w0AGS4FvWoTMW-1" value="用户" style="rounded=1;whiteSpace=wrap;html=1;fontSize=18;" parent="1" vertex="1"><mxGeometry x="-450" y="-390" width="120" height="60" as="geometry"/></mxCell><mxCell id="GQjXle8w0AGS4FvWoTMW-6" style="edgeStyle=none;rounded=0;orthogonalLoop=1;jettySize=auto;html=1;exitX=0.5;exitY=0;exitDx=0;exitDy=0;entryX=0.5;entryY=1;entryDx=0;entryDy=0;endArrow=none;endFill=0;fontSize=18;" parent="1" source="GQjXle8w0AGS4FvWoTMW-4" target="GQjXle8w0AGS4FvWoTMW-1" edge="1"><mxGeometry relative="1" as="geometry"/></mxCell><mxCell id="GQjXle8w0AGS4FvWoTMW-4" value="绑定" style="rhombus;whiteSpace=wrap;html=1;fontSize=18;" parent="1" vertex="1"><mxGeometry x="-550" y="-160" width="90" height="50" as="geometry"/></mxCell><mxCell id="GQjXle8w0AGS4FvWoTMW-41" style="edgeStyle=none;rounded=0;orthogonalLoop=1;jettySize=auto;html=1;exitX=1;exitY=0.5;exitDx=0;exitDy=0;fontSize=18;endArrow=none;endFill=0;" parent="1" source="GQjXle8w0AGS4FvWoTMW-7" target="GQjXle8w0AGS4FvWoTMW-1" edge="1"><mxGeometry relative="1" as="geometry"/></mxCell><mxCell id="GQjXle8w0AGS4FvWoTMW-7" value="用户名" style="ellipse;whiteSpace=wrap;html=1;fontSize=18;" parent="1" vertex="1"><mxGeometry x="-802.5" y="-385" width="100" height="50" as="geometry"/></mxCell><mxCell id="GQjXle8w0AGS4FvWoTMW-42" style="edgeStyle=none;rounded=0;orthogonalLoop=1;jettySize=auto;html=1;exitX=1;exitY=0.5;exitDx=0;exitDy=0;fontSize=18;endArrow=none;endFill=0;" parent="1" source="GQjXle8w0AGS4FvWoTMW-9" target="GQjXle8w0AGS4FvWoTMW-1" edge="1"><mxGeometry relative="1" as="geometry"/></mxCell><mxCell id="GQjXle8w0AGS4FvWoTMW-9" value="密码" style="ellipse;whiteSpace=wrap;html=1;fontSize=18;" parent="1" vertex="1"><mxGeometry x="-870" y="-410" width="80" height="40" as="geometry"/></mxCell><mxCell id="GQjXle8w0AGS4FvWoTMW-40" style="edgeStyle=none;rounded=0;orthogonalLoop=1;jettySize=auto;html=1;exitX=1;exitY=0.5;exitDx=0;exitDy=0;entryX=0;entryY=0.75;entryDx=0;entryDy=0;fontSize=18;endArrow=none;endFill=0;" parent="1" source="GQjXle8w0AGS4FvWoTMW-11" target="GQjXle8w0AGS4FvWoTMW-1" edge="1"><mxGeometry relative="1" as="geometry"/></mxCell><mxCell id="GQjXle8w0AGS4FvWoTMW-11" value="id" style="ellipse;whiteSpace=wrap;html=1;fontSize=18;" parent="1" vertex="1"><mxGeometry x="-790" y="-330" width="85" height="50" as="geometry"/></mxCell><mxCell id="GQjXle8w0AGS4FvWoTMW-43" style="edgeStyle=none;rounded=0;orthogonalLoop=1;jettySize=auto;html=1;exitX=1;exitY=1;exitDx=0;exitDy=0;entryX=0;entryY=0;entryDx=0;entryDy=0;fontSize=18;endArrow=none;endFill=0;" parent="1" source="GQjXle8w0AGS4FvWoTMW-12" target="GQjXle8w0AGS4FvWoTMW-1" edge="1"><mxGeometry relative="1" as="geometry"/></mxCell><mxCell id="GQjXle8w0AGS4FvWoTMW-12" value="地址" style="ellipse;whiteSpace=wrap;html=1;fontSize=18;" parent="1" vertex="1"><mxGeometry x="-870" y="-470" width="77.5" height="40" as="geometry"/></mxCell><mxCell id="GQjXle8w0AGS4FvWoTMW-85" style="edgeStyle=none;rounded=0;orthogonalLoop=1;jettySize=auto;html=1;exitX=0.5;exitY=0;exitDx=0;exitDy=0;entryX=0.75;entryY=1;entryDx=0;entryDy=0;fontSize=18;endArrow=none;endFill=0;" parent="1" source="GQjXle8w0AGS4FvWoTMW-13" target="GQjXle8w0AGS4FvWoTMW-1" edge="1"><mxGeometry relative="1" as="geometry"/></mxCell><mxCell id="GQjXle8w0AGS4FvWoTMW-13" value="生日" style="ellipse;whiteSpace=wrap;html=1;fontSize=18;" parent="1" vertex="1"><mxGeometry x="-350" y="-170" width="80" height="40" as="geometry"/></mxCell><mxCell id="GQjXle8w0AGS4FvWoTMW-84" style="edgeStyle=none;rounded=0;orthogonalLoop=1;jettySize=auto;html=1;exitX=0.5;exitY=0;exitDx=0;exitDy=0;entryX=0.75;entryY=1;entryDx=0;entryDy=0;fontSize=18;endArrow=none;endFill=0;" parent="1" source="GQjXle8w0AGS4FvWoTMW-14" target="GQjXle8w0AGS4FvWoTMW-1" edge="1"><mxGeometry relative="1" as="geometry"/></mxCell><mxCell id="GQjXle8w0AGS4FvWoTMW-14" value="性别" style="ellipse;whiteSpace=wrap;html=1;fontSize=18;" parent="1" vertex="1"><mxGeometry x="-432.5" y="-155" width="90" height="40" as="geometry"/></mxCell><mxCell id="GQjXle8w0AGS4FvWoTMW-60" style="edgeStyle=none;rounded=0;orthogonalLoop=1;jettySize=auto;html=1;exitX=1;exitY=0.75;exitDx=0;exitDy=0;entryX=0;entryY=0.5;entryDx=0;entryDy=0;fontSize=18;endArrow=none;endFill=0;" parent="1" source="GQjXle8w0AGS4FvWoTMW-16" target="GQjXle8w0AGS4FvWoTMW-29" edge="1"><mxGeometry relative="1" as="geometry"/></mxCell><mxCell id="GQjXle8w0AGS4FvWoTMW-16" value="角色" style="rounded=1;whiteSpace=wrap;html=1;fontSize=18;" parent="1" vertex="1"><mxGeometry x="-140" y="-580" width="120" height="60" as="geometry"/></mxCell><mxCell id="GQjXle8w0AGS4FvWoTMW-19" style="edgeStyle=none;rounded=0;orthogonalLoop=1;jettySize=auto;html=1;exitX=1;exitY=0.5;exitDx=0;exitDy=0;fontSize=18;endArrow=none;endFill=0;" parent="1" source="GQjXle8w0AGS4FvWoTMW-17" target="GQjXle8w0AGS4FvWoTMW-16" edge="1"><mxGeometry relative="1" as="geometry"/></mxCell><mxCell id="GQjXle8w0AGS4FvWoTMW-17" value="拥有" style="rhombus;whiteSpace=wrap;html=1;fontSize=18;" parent="1" vertex="1"><mxGeometry x="-270" y="-490" width="100" height="50" as="geometry"/></mxCell><mxCell id="GQjXle8w0AGS4FvWoTMW-44" style="edgeStyle=none;rounded=0;orthogonalLoop=1;jettySize=auto;html=1;exitX=1;exitY=1;exitDx=0;exitDy=0;fontSize=18;endArrow=none;endFill=0;" parent="1" source="GQjXle8w0AGS4FvWoTMW-20" target="GQjXle8w0AGS4FvWoTMW-1" edge="1"><mxGeometry relative="1" as="geometry"/></mxCell><mxCell id="GQjXle8w0AGS4FvWoTMW-20" value="电话号码" style="ellipse;whiteSpace=wrap;html=1;fontSize=18;" parent="1" vertex="1"><mxGeometry x="-862.5" y="-515" width="85" height="40" as="geometry"/></mxCell><mxCell id="GQjXle8w0AGS4FvWoTMW-45" style="edgeStyle=none;rounded=0;orthogonalLoop=1;jettySize=auto;html=1;exitX=1;exitY=1;exitDx=0;exitDy=0;entryX=0.25;entryY=0;entryDx=0;entryDy=0;fontSize=18;endArrow=none;endFill=0;" parent="1" source="GQjXle8w0AGS4FvWoTMW-21" target="GQjXle8w0AGS4FvWoTMW-1" edge="1"><mxGeometry relative="1" as="geometry"/></mxCell><mxCell id="GQjXle8w0AGS4FvWoTMW-21" value="邮箱" style="ellipse;whiteSpace=wrap;html=1;fontSize=18;" parent="1" vertex="1"><mxGeometry x="-845" y="-560" width="85" height="40" as="geometry"/></mxCell><mxCell id="GQjXle8w0AGS4FvWoTMW-32" style="edgeStyle=none;rounded=0;orthogonalLoop=1;jettySize=auto;html=1;exitX=0.5;exitY=0;exitDx=0;exitDy=0;entryX=1;entryY=1;entryDx=0;entryDy=0;fontSize=18;endArrow=none;endFill=0;" parent="1" source="GQjXle8w0AGS4FvWoTMW-22" target="GQjXle8w0AGS4FvWoTMW-28" edge="1"><mxGeometry relative="1" as="geometry"/></mxCell><mxCell id="GQjXle8w0AGS4FvWoTMW-33" style="edgeStyle=none;rounded=0;orthogonalLoop=1;jettySize=auto;html=1;exitX=0.5;exitY=0;exitDx=0;exitDy=0;entryX=0.747;entryY=0.94;entryDx=0;entryDy=0;fontSize=18;endArrow=none;endFill=0;entryPerimeter=0;" parent="1" source="GQjXle8w0AGS4FvWoTMW-22" target="GQjXle8w0AGS4FvWoTMW-36" edge="1"><mxGeometry relative="1" as="geometry"><mxPoint x="127.5" y="-720" as="targetPoint"/></mxGeometry></mxCell><mxCell id="GQjXle8w0AGS4FvWoTMW-38" style="edgeStyle=none;rounded=0;orthogonalLoop=1;jettySize=auto;html=1;exitX=0.5;exitY=0;exitDx=0;exitDy=0;entryX=0;entryY=1;entryDx=0;entryDy=0;fontSize=18;endArrow=none;endFill=0;" parent="1" source="GQjXle8w0AGS4FvWoTMW-22" target="GQjXle8w0AGS4FvWoTMW-34" edge="1"><mxGeometry relative="1" as="geometry"/></mxCell><mxCell id="GQjXle8w0AGS4FvWoTMW-39" style="edgeStyle=none;rounded=0;orthogonalLoop=1;jettySize=auto;html=1;exitX=0.5;exitY=0;exitDx=0;exitDy=0;entryX=0;entryY=1;entryDx=0;entryDy=0;fontSize=18;endArrow=none;endFill=0;" parent="1" source="GQjXle8w0AGS4FvWoTMW-22" target="GQjXle8w0AGS4FvWoTMW-35" edge="1"><mxGeometry relative="1" as="geometry"/></mxCell><mxCell id="GQjXle8w0AGS4FvWoTMW-22" value="资源" style="rounded=1;whiteSpace=wrap;html=1;fontSize=18;" parent="1" vertex="1"><mxGeometry x="100" y="-670" width="120" height="60" as="geometry"/></mxCell><mxCell id="GQjXle8w0AGS4FvWoTMW-86" style="edgeStyle=none;rounded=0;orthogonalLoop=1;jettySize=auto;html=1;exitX=0;exitY=0;exitDx=0;exitDy=0;entryX=0.75;entryY=1;entryDx=0;entryDy=0;fontSize=18;endArrow=none;endFill=0;" parent="1" source="GQjXle8w0AGS4FvWoTMW-26" target="GQjXle8w0AGS4FvWoTMW-1" edge="1"><mxGeometry relative="1" as="geometry"/></mxCell><mxCell id="GQjXle8w0AGS4FvWoTMW-26" value="创建时间" style="ellipse;whiteSpace=wrap;html=1;fontSize=18;" parent="1" vertex="1"><mxGeometry x="-280" y="-205" width="90" height="40" as="geometry"/></mxCell><mxCell id="GQjXle8w0AGS4FvWoTMW-28" value="id" style="ellipse;whiteSpace=wrap;html=1;fontSize=18;" parent="1" vertex="1"><mxGeometry x="-45" y="-720" width="85" height="40" as="geometry"/></mxCell><mxCell id="GQjXle8w0AGS4FvWoTMW-31" style="edgeStyle=none;rounded=0;orthogonalLoop=1;jettySize=auto;html=1;exitX=0.5;exitY=0;exitDx=0;exitDy=0;entryX=0.5;entryY=1;entryDx=0;entryDy=0;fontSize=18;endArrow=none;endFill=0;" parent="1" source="GQjXle8w0AGS4FvWoTMW-29" target="GQjXle8w0AGS4FvWoTMW-22" edge="1"><mxGeometry relative="1" as="geometry"/></mxCell><mxCell id="GQjXle8w0AGS4FvWoTMW-29" value="拥有" style="rhombus;whiteSpace=wrap;html=1;fontSize=18;" parent="1" vertex="1"><mxGeometry x="10" y="-600" width="100" height="60" as="geometry"/></mxCell><mxCell id="GQjXle8w0AGS4FvWoTMW-34" value="名称" style="ellipse;whiteSpace=wrap;html=1;fontSize=18;" parent="1" vertex="1"><mxGeometry x="182.5" y="-770" width="70" height="40" as="geometry"/></mxCell><mxCell id="GQjXle8w0AGS4FvWoTMW-35" value="描述" style="ellipse;whiteSpace=wrap;html=1;fontSize=18;" parent="1" vertex="1"><mxGeometry x="262.5" y="-750" width="80" height="40" as="geometry"/></mxCell><mxCell id="GQjXle8w0AGS4FvWoTMW-36" value="创建时间" style="ellipse;whiteSpace=wrap;html=1;fontSize=18;" parent="1" vertex="1"><mxGeometry x="42.5" y="-780" width="100" height="40" as="geometry"/></mxCell><mxCell id="GQjXle8w0AGS4FvWoTMW-53" style="edgeStyle=none;rounded=0;orthogonalLoop=1;jettySize=auto;html=1;exitX=1;exitY=0.5;exitDx=0;exitDy=0;fontSize=18;endArrow=none;endFill=0;" parent="1" source="GQjXle8w0AGS4FvWoTMW-49" target="GQjXle8w0AGS4FvWoTMW-52" edge="1"><mxGeometry relative="1" as="geometry"/></mxCell><mxCell id="GQjXle8w0AGS4FvWoTMW-49" value="拥有" style="rhombus;whiteSpace=wrap;html=1;fontSize=18;" parent="1" vertex="1"><mxGeometry x="-130" y="-370" width="100" height="50" as="geometry"/></mxCell><mxCell id="GQjXle8w0AGS4FvWoTMW-61" style="edgeStyle=none;rounded=0;orthogonalLoop=1;jettySize=auto;html=1;exitX=0.5;exitY=1;exitDx=0;exitDy=0;fontSize=18;endArrow=none;endFill=0;" parent="1" source="GQjXle8w0AGS4FvWoTMW-52" target="GQjXle8w0AGS4FvWoTMW-58" edge="1"><mxGeometry relative="1" as="geometry"/></mxCell><mxCell id="GQjXle8w0AGS4FvWoTMW-62" style="edgeStyle=none;rounded=0;orthogonalLoop=1;jettySize=auto;html=1;exitX=0.75;exitY=1;exitDx=0;exitDy=0;entryX=0;entryY=0;entryDx=0;entryDy=0;fontSize=18;endArrow=none;endFill=0;" parent="1" source="GQjXle8w0AGS4FvWoTMW-52" target="GQjXle8w0AGS4FvWoTMW-57" edge="1"><mxGeometry relative="1" as="geometry"/></mxCell><mxCell id="GQjXle8w0AGS4FvWoTMW-63" style="edgeStyle=none;rounded=0;orthogonalLoop=1;jettySize=auto;html=1;exitX=1;exitY=0.75;exitDx=0;exitDy=0;fontSize=18;endArrow=none;endFill=0;" parent="1" source="GQjXle8w0AGS4FvWoTMW-52" target="GQjXle8w0AGS4FvWoTMW-56" edge="1"><mxGeometry relative="1" as="geometry"/></mxCell><mxCell id="GQjXle8w0AGS4FvWoTMW-64" style="edgeStyle=none;rounded=0;orthogonalLoop=1;jettySize=auto;html=1;exitX=1;exitY=0.5;exitDx=0;exitDy=0;fontSize=18;endArrow=none;endFill=0;" parent="1" source="GQjXle8w0AGS4FvWoTMW-52" target="GQjXle8w0AGS4FvWoTMW-55" edge="1"><mxGeometry relative="1" as="geometry"/></mxCell><mxCell id="GQjXle8w0AGS4FvWoTMW-65" style="edgeStyle=none;rounded=0;orthogonalLoop=1;jettySize=auto;html=1;exitX=1;exitY=0.25;exitDx=0;exitDy=0;fontSize=18;endArrow=none;endFill=0;" parent="1" source="GQjXle8w0AGS4FvWoTMW-52" target="GQjXle8w0AGS4FvWoTMW-54" edge="1"><mxGeometry relative="1" as="geometry"/></mxCell><mxCell id="GQjXle8w0AGS4FvWoTMW-66" style="edgeStyle=none;rounded=0;orthogonalLoop=1;jettySize=auto;html=1;exitX=1;exitY=0;exitDx=0;exitDy=0;fontSize=18;endArrow=none;endFill=0;" parent="1" source="GQjXle8w0AGS4FvWoTMW-52" target="GQjXle8w0AGS4FvWoTMW-59" edge="1"><mxGeometry relative="1" as="geometry"/></mxCell><mxCell id="GQjXle8w0AGS4FvWoTMW-68" style="edgeStyle=none;rounded=0;orthogonalLoop=1;jettySize=auto;html=1;exitX=0.75;exitY=0;exitDx=0;exitDy=0;entryX=0;entryY=0.5;entryDx=0;entryDy=0;fontSize=18;endArrow=none;endFill=0;" parent="1" source="GQjXle8w0AGS4FvWoTMW-52" target="GQjXle8w0AGS4FvWoTMW-67" edge="1"><mxGeometry relative="1" as="geometry"/></mxCell><mxCell id="GQjXle8w0AGS4FvWoTMW-52" value="权限" style="rounded=1;whiteSpace=wrap;html=1;fontSize=18;" parent="1" vertex="1"><mxGeometry x="100" y="-360" width="120" height="60" as="geometry"/></mxCell><mxCell id="GQjXle8w0AGS4FvWoTMW-54" value="id" style="ellipse;whiteSpace=wrap;html=1;fontSize=18;" parent="1" vertex="1"><mxGeometry x="340" y="-350" width="90" height="40" as="geometry"/></mxCell><mxCell id="GQjXle8w0AGS4FvWoTMW-55" value="名称" style="ellipse;whiteSpace=wrap;html=1;fontSize=18;" parent="1" vertex="1"><mxGeometry x="320" y="-310" width="80" height="40" as="geometry"/></mxCell><mxCell id="GQjXle8w0AGS4FvWoTMW-56" value="图标" style="ellipse;whiteSpace=wrap;html=1;fontSize=18;" parent="1" vertex="1"><mxGeometry x="290" y="-270" width="80" height="40" as="geometry"/></mxCell><mxCell id="GQjXle8w0AGS4FvWoTMW-57" value="状态" style="ellipse;whiteSpace=wrap;html=1;fontSize=18;" parent="1" vertex="1"><mxGeometry x="220" y="-240" width="90" height="40" as="geometry"/></mxCell><mxCell id="GQjXle8w0AGS4FvWoTMW-58" value="创建时间" style="ellipse;whiteSpace=wrap;html=1;fontSize=18;" parent="1" vertex="1"><mxGeometry x="142.5" y="-220" width="90" height="50" as="geometry"/></mxCell><mxCell id="GQjXle8w0AGS4FvWoTMW-59" value="类型" style="ellipse;whiteSpace=wrap;html=1;fontSize=18;" parent="1" vertex="1"><mxGeometry x="342.5" y="-390" width="90" height="40" as="geometry"/></mxCell><mxCell id="GQjXle8w0AGS4FvWoTMW-67" value="权限值" style="ellipse;whiteSpace=wrap;html=1;fontSize=18;" parent="1" vertex="1"><mxGeometry x="330" y="-430" width="80" height="40" as="geometry"/></mxCell><mxCell id="GQjXle8w0AGS4FvWoTMW-72" style="edgeStyle=none;rounded=0;orthogonalLoop=1;jettySize=auto;html=1;exitX=0;exitY=0.5;exitDx=0;exitDy=0;entryX=1;entryY=0.25;entryDx=0;entryDy=0;fontSize=18;endArrow=none;endFill=0;" parent="1" source="GQjXle8w0AGS4FvWoTMW-71" target="GQjXle8w0AGS4FvWoTMW-22" edge="1"><mxGeometry relative="1" as="geometry"/></mxCell><mxCell id="GQjXle8w0AGS4FvWoTMW-71" value="资源url" style="ellipse;whiteSpace=wrap;html=1;fontSize=18;" parent="1" vertex="1"><mxGeometry x="310" y="-680" width="80" height="40" as="geometry"/></mxCell><mxCell id="GQjXle8w0AGS4FvWoTMW-87" style="edgeStyle=none;rounded=0;orthogonalLoop=1;jettySize=auto;html=1;exitX=0;exitY=0;exitDx=0;exitDy=0;entryX=1;entryY=1;entryDx=0;entryDy=0;fontSize=18;endArrow=none;endFill=0;" parent="1" source="GQjXle8w0AGS4FvWoTMW-73" target="GQjXle8w0AGS4FvWoTMW-1" edge="1"><mxGeometry relative="1" as="geometry"/></mxCell><mxCell id="GQjXle8w0AGS4FvWoTMW-73" value="头像" style="ellipse;whiteSpace=wrap;html=1;fontSize=18;" parent="1" vertex="1"><mxGeometry x="-230" y="-245" width="70" height="30" as="geometry"/></mxCell><mxCell id="GQjXle8w0AGS4FvWoTMW-76" style="edgeStyle=none;rounded=0;orthogonalLoop=1;jettySize=auto;html=1;exitX=1;exitY=0;exitDx=0;exitDy=0;entryX=0;entryY=1;entryDx=0;entryDy=0;fontSize=18;endArrow=none;endFill=0;" parent="1" source="GQjXle8w0AGS4FvWoTMW-75" target="GQjXle8w0AGS4FvWoTMW-1" edge="1"><mxGeometry relative="1" as="geometry"/></mxCell><mxCell id="GQjXle8w0AGS4FvWoTMW-75" value="状态" style="ellipse;whiteSpace=wrap;html=1;fontSize=18;" parent="1" vertex="1"><mxGeometry x="-750" y="-280" width="90" height="40" as="geometry"/></mxCell><mxCell id="GQjXle8w0AGS4FvWoTMW-78" style="edgeStyle=none;rounded=0;orthogonalLoop=1;jettySize=auto;html=1;exitX=1;exitY=0;exitDx=0;exitDy=0;entryX=0.122;entryY=0.994;entryDx=0;entryDy=0;entryPerimeter=0;fontSize=18;endArrow=none;endFill=0;" parent="1" source="GQjXle8w0AGS4FvWoTMW-77" target="GQjXle8w0AGS4FvWoTMW-1" edge="1"><mxGeometry relative="1" as="geometry"/></mxCell><mxCell id="GQjXle8w0AGS4FvWoTMW-77" value="昵称" style="ellipse;whiteSpace=wrap;html=1;fontSize=18;" parent="1" vertex="1"><mxGeometry x="-702.5" y="-235" width="80" height="30" as="geometry"/></mxCell><mxCell id="GQjXle8w0AGS4FvWoTMW-80" style="edgeStyle=none;rounded=0;orthogonalLoop=1;jettySize=auto;html=1;exitX=0.5;exitY=0;exitDx=0;exitDy=0;entryX=0.25;entryY=1;entryDx=0;entryDy=0;fontSize=18;endArrow=none;endFill=0;" parent="1" source="GQjXle8w0AGS4FvWoTMW-79" target="GQjXle8w0AGS4FvWoTMW-1" edge="1"><mxGeometry relative="1" as="geometry"/></mxCell><mxCell id="GQjXle8w0AGS4FvWoTMW-79" value="个性签名" style="ellipse;whiteSpace=wrap;html=1;fontSize=18;" parent="1" vertex="1"><mxGeometry x="-640" y="-215" width="80" height="40" as="geometry"/></mxCell><mxCell id="GQjXle8w0AGS4FvWoTMW-94" style="edgeStyle=none;rounded=0;orthogonalLoop=1;jettySize=auto;html=1;exitX=0.25;exitY=0;exitDx=0;exitDy=0;entryX=1;entryY=1;entryDx=0;entryDy=0;fontSize=18;endArrow=none;endFill=0;" parent="1" source="GQjXle8w0AGS4FvWoTMW-82" target="GQjXle8w0AGS4FvWoTMW-92" edge="1"><mxGeometry relative="1" as="geometry"/></mxCell><mxCell id="GQjXle8w0AGS4FvWoTMW-95" style="edgeStyle=none;rounded=0;orthogonalLoop=1;jettySize=auto;html=1;exitX=0.5;exitY=0;exitDx=0;exitDy=0;entryX=0.5;entryY=1;entryDx=0;entryDy=0;fontSize=18;endArrow=none;endFill=0;" parent="1" source="GQjXle8w0AGS4FvWoTMW-82" target="GQjXle8w0AGS4FvWoTMW-91" edge="1"><mxGeometry relative="1" as="geometry"/></mxCell><mxCell id="GQjXle8w0AGS4FvWoTMW-96" style="edgeStyle=none;rounded=0;orthogonalLoop=1;jettySize=auto;html=1;exitX=0.75;exitY=0;exitDx=0;exitDy=0;entryX=0.5;entryY=1;entryDx=0;entryDy=0;fontSize=18;endArrow=none;endFill=0;" parent="1" source="GQjXle8w0AGS4FvWoTMW-82" target="GQjXle8w0AGS4FvWoTMW-93" edge="1"><mxGeometry relative="1" as="geometry"/></mxCell><mxCell id="GQjXle8w0AGS4FvWoTMW-82" value="后台用户登录日志表" style="rounded=1;whiteSpace=wrap;html=1;fontSize=18;" parent="1" vertex="1"><mxGeometry x="360" y="-535" width="210" height="60" as="geometry"/></mxCell><mxCell id="GQjXle8w0AGS4FvWoTMW-91" value="创建日期" style="ellipse;whiteSpace=wrap;html=1;fontSize=18;" parent="1" vertex="1"><mxGeometry x="447.5" y="-610" width="100" height="40" as="geometry"/></mxCell><mxCell id="GQjXle8w0AGS4FvWoTMW-92" value="id" style="ellipse;whiteSpace=wrap;html=1;fontSize=18;" parent="1" vertex="1"><mxGeometry x="342.5" y="-620" width="90" height="40" as="geometry"/></mxCell><mxCell id="GQjXle8w0AGS4FvWoTMW-93" value="ip" style="ellipse;whiteSpace=wrap;html=1;fontSize=18;" parent="1" vertex="1"><mxGeometry x="570" y="-620" width="80" height="40" as="geometry"/></mxCell><mxCell id="GQjXle8w0AGS4FvWoTMW-99" style="edgeStyle=none;rounded=0;orthogonalLoop=1;jettySize=auto;html=1;exitX=0.5;exitY=1;exitDx=0;exitDy=0;fontSize=18;endArrow=none;endFill=0;" parent="1" source="GQjXle8w0AGS4FvWoTMW-97" target="GQjXle8w0AGS4FvWoTMW-1" edge="1"><mxGeometry relative="1" as="geometry"/></mxCell><mxCell id="GQjXle8w0AGS4FvWoTMW-97" value="最后登录时间" style="ellipse;whiteSpace=wrap;html=1;fontSize=18;" parent="1" vertex="1"><mxGeometry x="-780" y="-590" width="120" height="40" as="geometry"/></mxCell><mxCell id="GQjXle8w0AGS4FvWoTMW-100" style="edgeStyle=none;rounded=0;orthogonalLoop=1;jettySize=auto;html=1;entryX=0.5;entryY=0;entryDx=0;entryDy=0;fontSize=18;endArrow=none;endFill=0;" parent="1" source="GQjXle8w0AGS4FvWoTMW-98" target="GQjXle8w0AGS4FvWoTMW-1" edge="1"><mxGeometry relative="1" as="geometry"/></mxCell><mxCell id="GQjXle8w0AGS4FvWoTMW-98" value="创建时间" style="ellipse;whiteSpace=wrap;html=1;fontSize=18;" parent="1" vertex="1"><mxGeometry x="-705" y="-615" width="110" height="30" as="geometry"/></mxCell><mxCell id="GQjXle8w0AGS4FvWoTMW-189" style="edgeStyle=none;rounded=0;orthogonalLoop=1;jettySize=auto;html=1;exitX=0.5;exitY=0;exitDx=0;exitDy=0;fontSize=18;endArrow=none;endFill=0;" parent="1" source="GQjXle8w0AGS4FvWoTMW-101" target="GQjXle8w0AGS4FvWoTMW-116" edge="1"><mxGeometry relative="1" as="geometry"/></mxCell><mxCell id="GQjXle8w0AGS4FvWoTMW-101" value="首页推荐专题表" style="rounded=1;whiteSpace=wrap;html=1;fontSize=18;" parent="1" vertex="1"><mxGeometry x="227.5" y="860" width="150" height="60" as="geometry"/></mxCell><mxCell id="GQjXle8w0AGS4FvWoTMW-188" style="edgeStyle=none;rounded=0;orthogonalLoop=1;jettySize=auto;html=1;exitX=0.5;exitY=0;exitDx=0;exitDy=0;entryX=0.75;entryY=1;entryDx=0;entryDy=0;fontSize=18;endArrow=none;endFill=0;" parent="1" source="GQjXle8w0AGS4FvWoTMW-103" target="GQjXle8w0AGS4FvWoTMW-101" edge="1"><mxGeometry relative="1" as="geometry"/></mxCell><mxCell id="GQjXle8w0AGS4FvWoTMW-103" value="专题表名" style="ellipse;whiteSpace=wrap;html=1;fontSize=18;" parent="1" vertex="1"><mxGeometry x="377.5" y="975" width="100" height="40" as="geometry"/></mxCell><mxCell id="GQjXle8w0AGS4FvWoTMW-187" value="" style="edgeStyle=none;rounded=0;orthogonalLoop=1;jettySize=auto;html=1;fontSize=18;endArrow=none;endFill=0;" parent="1" source="GQjXle8w0AGS4FvWoTMW-104" target="GQjXle8w0AGS4FvWoTMW-101" edge="1"><mxGeometry relative="1" as="geometry"/></mxCell><mxCell id="GQjXle8w0AGS4FvWoTMW-104" value="状态" style="ellipse;whiteSpace=wrap;html=1;fontSize=18;" parent="1" vertex="1"><mxGeometry x="290" y="1000" width="70" height="40" as="geometry"/></mxCell><mxCell id="GQjXle8w0AGS4FvWoTMW-107" style="edgeStyle=none;rounded=0;orthogonalLoop=1;jettySize=auto;html=1;exitX=1;exitY=1;exitDx=0;exitDy=0;entryX=0;entryY=0.25;entryDx=0;entryDy=0;fontSize=18;endArrow=none;endFill=0;" parent="1" source="GQjXle8w0AGS4FvWoTMW-106" target="GQjXle8w0AGS4FvWoTMW-101" edge="1"><mxGeometry relative="1" as="geometry"/></mxCell><mxCell id="GQjXle8w0AGS4FvWoTMW-106" value="id" style="ellipse;whiteSpace=wrap;html=1;fontSize=18;" parent="1" vertex="1"><mxGeometry x="45" y="960" width="70" height="30" as="geometry"/></mxCell><mxCell id="GQjXle8w0AGS4FvWoTMW-166" style="edgeStyle=none;rounded=0;orthogonalLoop=1;jettySize=auto;html=1;exitX=0.75;exitY=0;exitDx=0;exitDy=0;fontSize=18;endArrow=none;endFill=0;" parent="1" source="GQjXle8w0AGS4FvWoTMW-115" target="GQjXle8w0AGS4FvWoTMW-163" edge="1"><mxGeometry relative="1" as="geometry"/></mxCell><mxCell id="GQjXle8w0AGS4FvWoTMW-167" style="edgeStyle=none;rounded=0;orthogonalLoop=1;jettySize=auto;html=1;exitX=1;exitY=0;exitDx=0;exitDy=0;fontSize=18;endArrow=none;endFill=0;" parent="1" source="GQjXle8w0AGS4FvWoTMW-115" target="GQjXle8w0AGS4FvWoTMW-162" edge="1"><mxGeometry relative="1" as="geometry"/></mxCell><mxCell id="GQjXle8w0AGS4FvWoTMW-168" style="edgeStyle=none;rounded=0;orthogonalLoop=1;jettySize=auto;html=1;exitX=1;exitY=0.5;exitDx=0;exitDy=0;fontSize=18;endArrow=none;endFill=0;" parent="1" source="GQjXle8w0AGS4FvWoTMW-115" target="GQjXle8w0AGS4FvWoTMW-161" edge="1"><mxGeometry relative="1" as="geometry"/></mxCell><mxCell id="GQjXle8w0AGS4FvWoTMW-169" style="edgeStyle=none;rounded=0;orthogonalLoop=1;jettySize=auto;html=1;exitX=1;exitY=1;exitDx=0;exitDy=0;entryX=0;entryY=0.5;entryDx=0;entryDy=0;fontSize=18;endArrow=none;endFill=0;" parent="1" source="GQjXle8w0AGS4FvWoTMW-115" target="GQjXle8w0AGS4FvWoTMW-160" edge="1"><mxGeometry relative="1" as="geometry"/></mxCell><mxCell id="GQjXle8w0AGS4FvWoTMW-115" value="专题" style="rounded=1;whiteSpace=wrap;html=1;fontSize=18;" parent="1" vertex="1"><mxGeometry x="190" y="680" width="100" height="50" as="geometry"/></mxCell><mxCell id="GQjXle8w0AGS4FvWoTMW-190" style="edgeStyle=none;rounded=0;orthogonalLoop=1;jettySize=auto;html=1;exitX=0.5;exitY=0;exitDx=0;exitDy=0;fontSize=18;endArrow=none;endFill=0;" parent="1" source="GQjXle8w0AGS4FvWoTMW-116" target="GQjXle8w0AGS4FvWoTMW-115" edge="1"><mxGeometry relative="1" as="geometry"/></mxCell><mxCell id="GQjXle8w0AGS4FvWoTMW-116" value="使用" style="rhombus;whiteSpace=wrap;html=1;fontSize=18;" parent="1" vertex="1"><mxGeometry x="205" y="760" width="100" height="60" as="geometry"/></mxCell><mxCell id="GQjXle8w0AGS4FvWoTMW-140" style="edgeStyle=none;rounded=0;orthogonalLoop=1;jettySize=auto;html=1;exitX=0.5;exitY=0;exitDx=0;exitDy=0;entryX=0.25;entryY=1;entryDx=0;entryDy=0;fontSize=18;endArrow=none;endFill=0;" parent="1" source="GQjXle8w0AGS4FvWoTMW-139" target="GQjXle8w0AGS4FvWoTMW-101" edge="1"><mxGeometry relative="1" as="geometry"/></mxCell><mxCell id="GQjXle8w0AGS4FvWoTMW-139" value="排序" style="ellipse;whiteSpace=wrap;html=1;fontSize=18;" parent="1" vertex="1"><mxGeometry x="185" y="1005" width="90" height="35" as="geometry"/></mxCell><mxCell id="GQjXle8w0AGS4FvWoTMW-152" style="edgeStyle=none;rounded=0;orthogonalLoop=1;jettySize=auto;html=1;exitX=0.5;exitY=0;exitDx=0;exitDy=0;entryX=0.5;entryY=1;entryDx=0;entryDy=0;fontSize=18;endArrow=none;endFill=0;" parent="1" source="GQjXle8w0AGS4FvWoTMW-144" target="GQjXle8w0AGS4FvWoTMW-145" edge="1"><mxGeometry relative="1" as="geometry"/></mxCell><mxCell id="GQjXle8w0AGS4FvWoTMW-156" style="edgeStyle=none;rounded=0;orthogonalLoop=1;jettySize=auto;html=1;exitX=0.75;exitY=0;exitDx=0;exitDy=0;entryX=0.5;entryY=1;entryDx=0;entryDy=0;fontSize=18;endArrow=none;endFill=0;" parent="1" source="GQjXle8w0AGS4FvWoTMW-144" target="GQjXle8w0AGS4FvWoTMW-155" edge="1"><mxGeometry relative="1" as="geometry"/></mxCell><mxCell id="GQjXle8w0AGS4FvWoTMW-144" value="操作日志" style="rounded=1;whiteSpace=wrap;html=1;fontSize=18;" parent="1" vertex="1"><mxGeometry x="-345" y="-750" width="120" height="60" as="geometry"/></mxCell><mxCell id="GQjXle8w0AGS4FvWoTMW-145" value="创建时间" style="ellipse;whiteSpace=wrap;html=1;fontSize=18;" parent="1" vertex="1"><mxGeometry x="-392.5" y="-890" width="100" height="50" as="geometry"/></mxCell><mxCell id="GQjXle8w0AGS4FvWoTMW-151" style="edgeStyle=none;rounded=0;orthogonalLoop=1;jettySize=auto;html=1;exitX=0.5;exitY=0;exitDx=0;exitDy=0;entryX=0.5;entryY=1;entryDx=0;entryDy=0;fontSize=18;endArrow=none;endFill=0;" parent="1" source="GQjXle8w0AGS4FvWoTMW-149" target="GQjXle8w0AGS4FvWoTMW-144" edge="1"><mxGeometry relative="1" as="geometry"/></mxCell><mxCell id="GQjXle8w0AGS4FvWoTMW-149" value="生成" style="rhombus;whiteSpace=wrap;html=1;fontSize=18;" parent="1" vertex="1"><mxGeometry x="-350" y="-600" width="80" height="50" as="geometry"/></mxCell><mxCell id="GQjXle8w0AGS4FvWoTMW-154" style="edgeStyle=none;rounded=0;orthogonalLoop=1;jettySize=auto;html=1;exitX=1;exitY=1;exitDx=0;exitDy=0;entryX=0.104;entryY=0.031;entryDx=0;entryDy=0;entryPerimeter=0;fontSize=18;endArrow=none;endFill=0;" parent="1" source="GQjXle8w0AGS4FvWoTMW-153" target="GQjXle8w0AGS4FvWoTMW-144" edge="1"><mxGeometry relative="1" as="geometry"/></mxCell><mxCell id="GQjXle8w0AGS4FvWoTMW-153" value="id" style="ellipse;whiteSpace=wrap;html=1;fontSize=18;" parent="1" vertex="1"><mxGeometry x="-490" y="-860" width="90" height="40" as="geometry"/></mxCell><mxCell id="GQjXle8w0AGS4FvWoTMW-155" value="操作名称" style="ellipse;whiteSpace=wrap;html=1;fontSize=18;" parent="1" vertex="1"><mxGeometry x="-285" y="-880" width="100" height="40" as="geometry"/></mxCell><mxCell id="GQjXle8w0AGS4FvWoTMW-183" style="edgeStyle=none;rounded=0;orthogonalLoop=1;jettySize=auto;html=1;exitX=1;exitY=1;exitDx=0;exitDy=0;entryX=0.5;entryY=0;entryDx=0;entryDy=0;fontSize=18;endArrow=none;endFill=0;" parent="1" source="GQjXle8w0AGS4FvWoTMW-159" target="GQjXle8w0AGS4FvWoTMW-115" edge="1"><mxGeometry relative="1" as="geometry"/></mxCell><mxCell id="GQjXle8w0AGS4FvWoTMW-159" value="主图" style="ellipse;whiteSpace=wrap;html=1;fontSize=18;" parent="1" vertex="1"><mxGeometry x="35" y="510" width="90" height="40" as="geometry"/></mxCell><mxCell id="GQjXle8w0AGS4FvWoTMW-160" value="阅读量" style="ellipse;whiteSpace=wrap;html=1;fontSize=18;" parent="1" vertex="1"><mxGeometry x="532.5" y="680" width="70" height="40" as="geometry"/></mxCell><mxCell id="GQjXle8w0AGS4FvWoTMW-161" value="创建时间" style="ellipse;whiteSpace=wrap;html=1;fontSize=18;" parent="1" vertex="1"><mxGeometry x="542.5" y="620" width="100" height="40" as="geometry"/></mxCell><mxCell id="GQjXle8w0AGS4FvWoTMW-162" value="标题" style="ellipse;whiteSpace=wrap;html=1;fontSize=18;" parent="1" vertex="1"><mxGeometry x="542.5" y="570" width="60" height="30" as="geometry"/></mxCell><mxCell id="GQjXle8w0AGS4FvWoTMW-163" value="分类名称" style="ellipse;whiteSpace=wrap;html=1;fontSize=18;" parent="1" vertex="1"><mxGeometry x="525" y="520" width="85" height="50" as="geometry"/></mxCell><mxCell id="GQjXle8w0AGS4FvWoTMW-172" style="edgeStyle=none;rounded=0;orthogonalLoop=1;jettySize=auto;html=1;exitX=0.5;exitY=1;exitDx=0;exitDy=0;entryX=0.5;entryY=0;entryDx=0;entryDy=0;fontSize=18;endArrow=none;endFill=0;" parent="1" source="GQjXle8w0AGS4FvWoTMW-164" target="GQjXle8w0AGS4FvWoTMW-171" edge="1"><mxGeometry relative="1" as="geometry"/></mxCell><mxCell id="GQjXle8w0AGS4FvWoTMW-164" value="专题分类" style="rounded=1;whiteSpace=wrap;html=1;fontSize=18;" parent="1" vertex="1"><mxGeometry x="215" y="440" width="120" height="60" as="geometry"/></mxCell><mxCell id="GQjXle8w0AGS4FvWoTMW-173" style="edgeStyle=none;rounded=0;orthogonalLoop=1;jettySize=auto;html=1;exitX=0.5;exitY=1;exitDx=0;exitDy=0;entryX=0.5;entryY=0;entryDx=0;entryDy=0;fontSize=18;endArrow=none;endFill=0;" parent="1" source="GQjXle8w0AGS4FvWoTMW-171" target="GQjXle8w0AGS4FvWoTMW-115" edge="1"><mxGeometry relative="1" as="geometry"/></mxCell><mxCell id="GQjXle8w0AGS4FvWoTMW-171" value="分类" style="rhombus;whiteSpace=wrap;html=1;fontSize=18;" parent="1" vertex="1"><mxGeometry x="170" y="530" width="120" height="60" as="geometry"/></mxCell><mxCell id="GQjXle8w0AGS4FvWoTMW-186" style="edgeStyle=none;rounded=0;orthogonalLoop=1;jettySize=auto;html=1;exitX=1;exitY=0.5;exitDx=0;exitDy=0;fontSize=18;endArrow=none;endFill=0;" parent="1" source="GQjXle8w0AGS4FvWoTMW-174" target="GQjXle8w0AGS4FvWoTMW-115" edge="1"><mxGeometry relative="1" as="geometry"/></mxCell><mxCell id="GQjXle8w0AGS4FvWoTMW-174" value="状态" style="ellipse;whiteSpace=wrap;html=1;fontSize=18;" parent="1" vertex="1"><mxGeometry x="-70" y="620" width="90" height="40" as="geometry"/></mxCell><mxCell id="GQjXle8w0AGS4FvWoTMW-184" style="edgeStyle=none;rounded=0;orthogonalLoop=1;jettySize=auto;html=1;exitX=1;exitY=1;exitDx=0;exitDy=0;entryX=0.25;entryY=0;entryDx=0;entryDy=0;fontSize=18;endArrow=none;endFill=0;" parent="1" source="GQjXle8w0AGS4FvWoTMW-176" target="GQjXle8w0AGS4FvWoTMW-115" edge="1"><mxGeometry relative="1" as="geometry"/></mxCell><mxCell id="GQjXle8w0AGS4FvWoTMW-176" value="描述" style="ellipse;whiteSpace=wrap;html=1;fontSize=18;" parent="1" vertex="1"><mxGeometry y="550" width="70" height="40" as="geometry"/></mxCell><mxCell id="GQjXle8w0AGS4FvWoTMW-179" style="edgeStyle=none;rounded=0;orthogonalLoop=1;jettySize=auto;html=1;exitX=0;exitY=1;exitDx=0;exitDy=0;fontSize=18;endArrow=none;endFill=0;" parent="1" source="GQjXle8w0AGS4FvWoTMW-178" target="GQjXle8w0AGS4FvWoTMW-115" edge="1"><mxGeometry relative="1" as="geometry"/></mxCell><mxCell id="GQjXle8w0AGS4FvWoTMW-178" value="画册" style="ellipse;whiteSpace=wrap;html=1;fontSize=18;" parent="1" vertex="1"><mxGeometry x="445" y="490" width="80" height="30" as="geometry"/></mxCell><mxCell id="GQjXle8w0AGS4FvWoTMW-185" style="edgeStyle=none;rounded=0;orthogonalLoop=1;jettySize=auto;html=1;exitX=1;exitY=0.5;exitDx=0;exitDy=0;fontSize=18;endArrow=none;endFill=0;" parent="1" source="GQjXle8w0AGS4FvWoTMW-180" target="GQjXle8w0AGS4FvWoTMW-115" edge="1"><mxGeometry relative="1" as="geometry"/></mxCell><mxCell id="GQjXle8w0AGS4FvWoTMW-180" value="内容" style="ellipse;whiteSpace=wrap;html=1;fontSize=18;" parent="1" vertex="1"><mxGeometry x="-50" y="590" width="80" height="30" as="geometry"/></mxCell><mxCell id="GQjXle8w0AGS4FvWoTMW-230" style="edgeStyle=none;rounded=0;orthogonalLoop=1;jettySize=auto;html=1;exitX=0.5;exitY=0;exitDx=0;exitDy=0;entryX=0.5;entryY=1;entryDx=0;entryDy=0;fontSize=18;endArrow=none;endFill=0;" parent="1" source="GQjXle8w0AGS4FvWoTMW-191" target="GQjXle8w0AGS4FvWoTMW-228" edge="1"><mxGeometry relative="1" as="geometry"/></mxCell><mxCell id="GQjXle8w0AGS4FvWoTMW-232" style="edgeStyle=none;rounded=0;orthogonalLoop=1;jettySize=auto;html=1;exitX=1;exitY=0;exitDx=0;exitDy=0;entryX=0.025;entryY=0.731;entryDx=0;entryDy=0;entryPerimeter=0;fontSize=18;endArrow=none;endFill=0;" parent="1" source="GQjXle8w0AGS4FvWoTMW-191" target="GQjXle8w0AGS4FvWoTMW-231" edge="1"><mxGeometry relative="1" as="geometry"/></mxCell><mxCell id="GQjXle8w0AGS4FvWoTMW-234" style="edgeStyle=none;rounded=0;orthogonalLoop=1;jettySize=auto;html=1;exitX=1;exitY=1;exitDx=0;exitDy=0;fontSize=18;endArrow=none;endFill=0;" parent="1" source="GQjXle8w0AGS4FvWoTMW-191" target="GQjXle8w0AGS4FvWoTMW-233" edge="1"><mxGeometry relative="1" as="geometry"/></mxCell><mxCell id="GQjXle8w0AGS4FvWoTMW-191" value="评论表" style="rounded=1;whiteSpace=wrap;html=1;fontSize=18;" parent="1" vertex="1"><mxGeometry x="570" y="110" width="120" height="60" as="geometry"/></mxCell><mxCell id="GQjXle8w0AGS4FvWoTMW-229" style="edgeStyle=none;rounded=0;orthogonalLoop=1;jettySize=auto;html=1;exitX=1;exitY=0.5;exitDx=0;exitDy=0;entryX=0;entryY=0.5;entryDx=0;entryDy=0;fontSize=18;endArrow=none;endFill=0;" parent="1" source="GQjXle8w0AGS4FvWoTMW-195" target="GQjXle8w0AGS4FvWoTMW-191" edge="1"><mxGeometry relative="1" as="geometry"/></mxCell><mxCell id="GQjXle8w0AGS4FvWoTMW-195" value="评论" style="rhombus;whiteSpace=wrap;html=1;fontSize=18;" parent="1" vertex="1"><mxGeometry x="452.5" y="120" width="90" height="40" as="geometry"/></mxCell><mxCell id="GQjXle8w0AGS4FvWoTMW-201" value="交易表" style="rounded=1;whiteSpace=wrap;html=1;fontSize=18;" parent="1" vertex="1"><mxGeometry x="-1430" y="237.5" width="120" height="60" as="geometry"/></mxCell><mxCell id="GQjXle8w0AGS4FvWoTMW-205" style="edgeStyle=none;rounded=0;orthogonalLoop=1;jettySize=auto;html=1;exitX=1;exitY=0.5;exitDx=0;exitDy=0;entryX=0;entryY=0.75;entryDx=0;entryDy=0;fontSize=18;endArrow=none;endFill=0;" parent="1" source="GQjXle8w0AGS4FvWoTMW-203" target="tvLHyavc6nxqDLxPzf1x-9" edge="1"><mxGeometry relative="1" as="geometry"/></mxCell><mxCell id="GQjXle8w0AGS4FvWoTMW-206" style="edgeStyle=none;rounded=0;orthogonalLoop=1;jettySize=auto;html=1;exitX=0;exitY=0.5;exitDx=0;exitDy=0;entryX=1;entryY=0.25;entryDx=0;entryDy=0;fontSize=18;endArrow=none;endFill=0;" parent="1" source="GQjXle8w0AGS4FvWoTMW-203" target="GQjXle8w0AGS4FvWoTMW-201" edge="1"><mxGeometry relative="1" as="geometry"/></mxCell><mxCell id="GQjXle8w0AGS4FvWoTMW-203" value="交易" style="rhombus;whiteSpace=wrap;html=1;fontSize=18;" parent="1" vertex="1"><mxGeometry x="-1250" y="230" width="110" height="50" as="geometry"/></mxCell><mxCell id="GQjXle8w0AGS4FvWoTMW-210" style="edgeStyle=none;rounded=0;orthogonalLoop=1;jettySize=auto;html=1;exitX=1;exitY=0.5;exitDx=0;exitDy=0;fontSize=18;endArrow=none;endFill=0;" parent="1" source="GQjXle8w0AGS4FvWoTMW-207" target="GQjXle8w0AGS4FvWoTMW-201" edge="1"><mxGeometry relative="1" as="geometry"/></mxCell><mxCell id="GQjXle8w0AGS4FvWoTMW-207" value="生成时间" style="ellipse;whiteSpace=wrap;html=1;fontSize=18;" parent="1" vertex="1"><mxGeometry x="-1550" y="185" width="90" height="40" as="geometry"/></mxCell><mxCell id="GQjXle8w0AGS4FvWoTMW-209" style="edgeStyle=none;rounded=0;orthogonalLoop=1;jettySize=auto;html=1;exitX=1;exitY=0.5;exitDx=0;exitDy=0;fontSize=18;endArrow=none;endFill=0;" parent="1" source="GQjXle8w0AGS4FvWoTMW-208" target="GQjXle8w0AGS4FvWoTMW-201" edge="1"><mxGeometry relative="1" as="geometry"/></mxCell><mxCell id="GQjXle8w0AGS4FvWoTMW-208" value="id" style="ellipse;whiteSpace=wrap;html=1;fontSize=18;" parent="1" vertex="1"><mxGeometry x="-1590" y="237.5" width="110" height="30" as="geometry"/></mxCell><mxCell id="GQjXle8w0AGS4FvWoTMW-216" value="生产过程" style="rounded=1;whiteSpace=wrap;html=1;fontSize=18;" parent="1" vertex="1"><mxGeometry x="-995" y="620" width="100" height="40" as="geometry"/></mxCell><mxCell id="GQjXle8w0AGS4FvWoTMW-218" style="edgeStyle=none;rounded=0;orthogonalLoop=1;jettySize=auto;html=1;exitX=1;exitY=0;exitDx=0;exitDy=0;entryX=0;entryY=0.75;entryDx=0;entryDy=0;fontSize=18;endArrow=none;endFill=0;" parent="1" source="GQjXle8w0AGS4FvWoTMW-217" target="GQjXle8w0AGS4FvWoTMW-216" edge="1"><mxGeometry relative="1" as="geometry"/></mxCell><mxCell id="GQjXle8w0AGS4FvWoTMW-217" value="开始时间" style="ellipse;whiteSpace=wrap;html=1;fontSize=18;" parent="1" vertex="1"><mxGeometry x="-1185" y="650" width="90" height="40" as="geometry"/></mxCell><mxCell id="GQjXle8w0AGS4FvWoTMW-221" style="edgeStyle=none;rounded=0;orthogonalLoop=1;jettySize=auto;html=1;exitX=1;exitY=0;exitDx=0;exitDy=0;entryX=0;entryY=1;entryDx=0;entryDy=0;fontSize=18;endArrow=none;endFill=0;" parent="1" source="GQjXle8w0AGS4FvWoTMW-219" target="GQjXle8w0AGS4FvWoTMW-216" edge="1"><mxGeometry relative="1" as="geometry"/></mxCell><mxCell id="GQjXle8w0AGS4FvWoTMW-219" value="过程名" style="ellipse;whiteSpace=wrap;html=1;fontSize=18;" parent="1" vertex="1"><mxGeometry x="-1140" y="695" width="80" height="30" as="geometry"/></mxCell><mxCell id="GQjXle8w0AGS4FvWoTMW-223" style="edgeStyle=none;rounded=0;orthogonalLoop=1;jettySize=auto;html=1;exitX=0.5;exitY=0;exitDx=0;exitDy=0;entryX=0;entryY=1;entryDx=0;entryDy=0;fontSize=18;endArrow=none;endFill=0;" parent="1" source="GQjXle8w0AGS4FvWoTMW-222" target="GQjXle8w0AGS4FvWoTMW-216" edge="1"><mxGeometry relative="1" as="geometry"/></mxCell><mxCell id="GQjXle8w0AGS4FvWoTMW-222" value="结束时间" style="ellipse;whiteSpace=wrap;html=1;fontSize=18;" parent="1" vertex="1"><mxGeometry x="-1070" y="720" width="90" height="30" as="geometry"/></mxCell><mxCell id="GQjXle8w0AGS4FvWoTMW-225" style="edgeStyle=none;rounded=0;orthogonalLoop=1;jettySize=auto;html=1;exitX=1;exitY=0;exitDx=0;exitDy=0;entryX=0;entryY=0.75;entryDx=0;entryDy=0;fontSize=18;endArrow=none;endFill=0;" parent="1" source="GQjXle8w0AGS4FvWoTMW-224" target="GQjXle8w0AGS4FvWoTMW-201" edge="1"><mxGeometry relative="1" as="geometry"/></mxCell><mxCell id="GQjXle8w0AGS4FvWoTMW-224" value="交易金额" style="ellipse;whiteSpace=wrap;html=1;fontSize=18;" parent="1" vertex="1"><mxGeometry x="-1590" y="283.75" width="90" height="50" as="geometry"/></mxCell><mxCell id="GQjXle8w0AGS4FvWoTMW-227" style="edgeStyle=none;rounded=0;orthogonalLoop=1;jettySize=auto;html=1;exitX=0.5;exitY=0;exitDx=0;exitDy=0;entryX=0.25;entryY=1;entryDx=0;entryDy=0;fontSize=18;endArrow=none;endFill=0;" parent="1" source="GQjXle8w0AGS4FvWoTMW-226" target="GQjXle8w0AGS4FvWoTMW-201" edge="1"><mxGeometry relative="1" as="geometry"/></mxCell><mxCell id="GQjXle8w0AGS4FvWoTMW-226" value="备注" style="ellipse;whiteSpace=wrap;html=1;fontSize=18;" parent="1" vertex="1"><mxGeometry x="-1520" y="348.75" width="80" height="30" as="geometry"/></mxCell><mxCell id="GQjXle8w0AGS4FvWoTMW-228" value="内容" style="ellipse;whiteSpace=wrap;html=1;fontSize=18;" parent="1" vertex="1"><mxGeometry x="610" y="25" width="80" height="35" as="geometry"/></mxCell><mxCell id="GQjXle8w0AGS4FvWoTMW-231" value="创建时间" style="ellipse;whiteSpace=wrap;html=1;fontSize=18;" parent="1" vertex="1"><mxGeometry x="720" y="50" width="90" height="50" as="geometry"/></mxCell><mxCell id="GQjXle8w0AGS4FvWoTMW-233" value="状态" style="ellipse;whiteSpace=wrap;html=1;fontSize=18;" parent="1" vertex="1"><mxGeometry x="720" y="175" width="80" height="30" as="geometry"/></mxCell><mxCell id="GQjXle8w0AGS4FvWoTMW-236" style="edgeStyle=none;rounded=0;orthogonalLoop=1;jettySize=auto;html=1;exitX=0.5;exitY=0;exitDx=0;exitDy=0;entryX=0.5;entryY=1;entryDx=0;entryDy=0;fontSize=18;endArrow=none;endFill=0;" parent="1" source="GQjXle8w0AGS4FvWoTMW-235" target="tvLHyavc6nxqDLxPzf1x-20" edge="1"><mxGeometry relative="1" as="geometry"/></mxCell><mxCell id="GQjXle8w0AGS4FvWoTMW-235" value="图片" style="ellipse;whiteSpace=wrap;html=1;fontSize=18;" parent="1" vertex="1"><mxGeometry x="-340" y="945" width="70" height="30" as="geometry"/></mxCell><mxCell id="GQjXle8w0AGS4FvWoTMW-238" style="edgeStyle=none;rounded=0;orthogonalLoop=1;jettySize=auto;html=1;entryX=0.5;entryY=0;entryDx=0;entryDy=0;fontSize=18;endArrow=none;endFill=0;" parent="1" source="GQjXle8w0AGS4FvWoTMW-237" target="GQjXle8w0AGS4FvWoTMW-1" edge="1"><mxGeometry relative="1" as="geometry"/></mxCell><mxCell id="GQjXle8w0AGS4FvWoTMW-237" value="头像" style="ellipse;whiteSpace=wrap;html=1;fontSize=18;" parent="1" vertex="1"><mxGeometry x="-605" y="-620" width="70" height="30" as="geometry"/></mxCell><mxCell id="GQjXle8w0AGS4FvWoTMW-240" style="edgeStyle=none;rounded=0;orthogonalLoop=1;jettySize=auto;html=1;exitX=0.5;exitY=0;exitDx=0;exitDy=0;entryX=0.5;entryY=1;entryDx=0;entryDy=0;fontSize=18;endArrow=none;endFill=0;" parent="1" source="GQjXle8w0AGS4FvWoTMW-239" target="GQjXle8w0AGS4FvWoTMW-191" edge="1"><mxGeometry relative="1" as="geometry"/></mxCell><mxCell id="GQjXle8w0AGS4FvWoTMW-239" value="用户图标" style="ellipse;whiteSpace=wrap;html=1;fontSize=18;" parent="1" vertex="1"><mxGeometry x="600" y="232.5" width="80" height="40" as="geometry"/></mxCell><mxCell id="tDXNHiry2UlxzGubVA_8-20" style="edgeStyle=none;rounded=0;orthogonalLoop=1;jettySize=auto;html=1;exitX=0.5;exitY=1;exitDx=0;exitDy=0;entryX=0;entryY=0;entryDx=0;entryDy=0;endArrow=none;endFill=0;fontSize=18;" parent="1" source="tDXNHiry2UlxzGubVA_8-1" target="tDXNHiry2UlxzGubVA_8-19" edge="1"><mxGeometry relative="1" as="geometry"/></mxCell><mxCell id="tDXNHiry2UlxzGubVA_8-1" value="帮助表" style="rounded=1;whiteSpace=wrap;html=1;fontSize=18;" parent="1" vertex="1"><mxGeometry x="700" y="-200" width="90" height="40" as="geometry"/></mxCell><mxCell id="tDXNHiry2UlxzGubVA_8-11" style="edgeStyle=none;rounded=0;orthogonalLoop=1;jettySize=auto;html=1;exitX=0.5;exitY=1;exitDx=0;exitDy=0;endArrow=none;endFill=0;fontSize=18;" parent="1" source="tDXNHiry2UlxzGubVA_8-2" target="tDXNHiry2UlxzGubVA_8-1" edge="1"><mxGeometry relative="1" as="geometry"/></mxCell><mxCell id="tDXNHiry2UlxzGubVA_8-2" value="创建时间" style="ellipse;whiteSpace=wrap;html=1;fontSize=18;" parent="1" vertex="1"><mxGeometry x="615" y="-310" width="95" height="40" as="geometry"/></mxCell><mxCell id="tDXNHiry2UlxzGubVA_8-12" style="edgeStyle=none;rounded=0;orthogonalLoop=1;jettySize=auto;html=1;exitX=0.5;exitY=1;exitDx=0;exitDy=0;entryX=0.5;entryY=0;entryDx=0;entryDy=0;endArrow=none;endFill=0;fontSize=18;" parent="1" source="tDXNHiry2UlxzGubVA_8-3" target="tDXNHiry2UlxzGubVA_8-1" edge="1"><mxGeometry relative="1" as="geometry"/></mxCell><mxCell id="tDXNHiry2UlxzGubVA_8-3" value="内容" style="ellipse;whiteSpace=wrap;html=1;fontSize=18;" parent="1" vertex="1"><mxGeometry x="725" y="-320" width="95" height="40" as="geometry"/></mxCell><mxCell id="tDXNHiry2UlxzGubVA_8-10" style="rounded=0;orthogonalLoop=1;jettySize=auto;html=1;exitX=1;exitY=1;exitDx=0;exitDy=0;endArrow=none;endFill=0;fontSize=18;" parent="1" source="tDXNHiry2UlxzGubVA_8-4" target="tDXNHiry2UlxzGubVA_8-1" edge="1"><mxGeometry relative="1" as="geometry"/></mxCell><mxCell id="tDXNHiry2UlxzGubVA_8-4" value="id" style="ellipse;whiteSpace=wrap;html=1;fontSize=18;" parent="1" vertex="1"><mxGeometry x="537.5" y="-260" width="82.5" height="50" as="geometry"/></mxCell><mxCell id="tDXNHiry2UlxzGubVA_8-13" style="edgeStyle=none;rounded=0;orthogonalLoop=1;jettySize=auto;html=1;exitX=0;exitY=1;exitDx=0;exitDy=0;entryX=0.62;entryY=0.002;entryDx=0;entryDy=0;entryPerimeter=0;endArrow=none;endFill=0;fontSize=18;" parent="1" source="tDXNHiry2UlxzGubVA_8-5" target="tDXNHiry2UlxzGubVA_8-1" edge="1"><mxGeometry relative="1" as="geometry"/></mxCell><mxCell id="tDXNHiry2UlxzGubVA_8-5" value="图标" style="ellipse;whiteSpace=wrap;html=1;fontSize=18;" parent="1" vertex="1"><mxGeometry x="810" y="-290" width="80" height="45" as="geometry"/></mxCell><mxCell id="tDXNHiry2UlxzGubVA_8-14" style="edgeStyle=none;rounded=0;orthogonalLoop=1;jettySize=auto;html=1;exitX=0;exitY=1;exitDx=0;exitDy=0;entryX=1;entryY=0;entryDx=0;entryDy=0;endArrow=none;endFill=0;fontSize=18;" parent="1" source="tDXNHiry2UlxzGubVA_8-6" target="tDXNHiry2UlxzGubVA_8-1" edge="1"><mxGeometry relative="1" as="geometry"/></mxCell><mxCell id="tDXNHiry2UlxzGubVA_8-6" value="标题" style="ellipse;whiteSpace=wrap;html=1;fontSize=18;" parent="1" vertex="1"><mxGeometry x="870" y="-250" width="80" height="40" as="geometry"/></mxCell><mxCell id="tDXNHiry2UlxzGubVA_8-15" style="edgeStyle=none;rounded=0;orthogonalLoop=1;jettySize=auto;html=1;exitX=0;exitY=0.5;exitDx=0;exitDy=0;entryX=1;entryY=0.25;entryDx=0;entryDy=0;endArrow=none;endFill=0;fontSize=18;" parent="1" source="tDXNHiry2UlxzGubVA_8-7" target="tDXNHiry2UlxzGubVA_8-1" edge="1"><mxGeometry relative="1" as="geometry"/></mxCell><mxCell id="tDXNHiry2UlxzGubVA_8-7" value="状态" style="ellipse;whiteSpace=wrap;html=1;fontSize=18;" parent="1" vertex="1"><mxGeometry x="920" y="-200" width="100" height="50" as="geometry"/></mxCell><mxCell id="tDXNHiry2UlxzGubVA_8-16" style="edgeStyle=none;rounded=0;orthogonalLoop=1;jettySize=auto;html=1;exitX=0;exitY=0.5;exitDx=0;exitDy=0;endArrow=none;endFill=0;fontSize=18;" parent="1" source="tDXNHiry2UlxzGubVA_8-8" target="tDXNHiry2UlxzGubVA_8-1" edge="1"><mxGeometry relative="1" as="geometry"/></mxCell><mxCell id="tDXNHiry2UlxzGubVA_8-8" value="阅读数量" style="ellipse;whiteSpace=wrap;html=1;fontSize=18;" parent="1" vertex="1"><mxGeometry x="960" y="-150" width="110" height="60" as="geometry"/></mxCell><mxCell id="tDXNHiry2UlxzGubVA_8-40" style="edgeStyle=none;rounded=0;orthogonalLoop=1;jettySize=auto;html=1;exitX=0.75;exitY=1;exitDx=0;exitDy=0;fontSize=18;endArrow=none;endFill=0;" parent="1" source="tDXNHiry2UlxzGubVA_8-18" target="tDXNHiry2UlxzGubVA_8-39" edge="1"><mxGeometry relative="1" as="geometry"/></mxCell><mxCell id="tDXNHiry2UlxzGubVA_8-41" style="edgeStyle=none;rounded=0;orthogonalLoop=1;jettySize=auto;html=1;exitX=1;exitY=0.75;exitDx=0;exitDy=0;fontSize=18;endArrow=none;endFill=0;" parent="1" source="tDXNHiry2UlxzGubVA_8-18" target="tDXNHiry2UlxzGubVA_8-38" edge="1"><mxGeometry relative="1" as="geometry"/></mxCell><mxCell id="tDXNHiry2UlxzGubVA_8-43" style="edgeStyle=none;rounded=0;orthogonalLoop=1;jettySize=auto;html=1;exitX=1;exitY=0.5;exitDx=0;exitDy=0;entryX=0;entryY=0.5;entryDx=0;entryDy=0;fontSize=18;endArrow=none;endFill=0;" parent="1" source="tDXNHiry2UlxzGubVA_8-18" target="tDXNHiry2UlxzGubVA_8-42" edge="1"><mxGeometry relative="1" as="geometry"/></mxCell><mxCell id="tDXNHiry2UlxzGubVA_8-18" value="帮助分类表" style="rounded=1;whiteSpace=wrap;html=1;fontSize=18;" parent="1" vertex="1"><mxGeometry x="900" y="-20" width="130" height="60" as="geometry"/></mxCell><mxCell id="tDXNHiry2UlxzGubVA_8-21" style="edgeStyle=none;rounded=0;orthogonalLoop=1;jettySize=auto;html=1;exitX=1;exitY=1;exitDx=0;exitDy=0;endArrow=none;endFill=0;fontSize=18;" parent="1" source="tDXNHiry2UlxzGubVA_8-19" target="tDXNHiry2UlxzGubVA_8-18" edge="1"><mxGeometry relative="1" as="geometry"/></mxCell><mxCell id="tDXNHiry2UlxzGubVA_8-19" value="分类" style="rhombus;whiteSpace=wrap;html=1;fontSize=18;" parent="1" vertex="1"><mxGeometry x="810" y="-100" width="70" height="40" as="geometry"/></mxCell><mxCell id="tDXNHiry2UlxzGubVA_8-29" style="edgeStyle=none;rounded=0;orthogonalLoop=1;jettySize=auto;html=1;exitX=0;exitY=0;exitDx=0;exitDy=0;entryX=1;entryY=1;entryDx=0;entryDy=0;fontSize=18;endArrow=none;endFill=0;" parent="1" source="tDXNHiry2UlxzGubVA_8-22" target="tDXNHiry2UlxzGubVA_8-28" edge="1"><mxGeometry relative="1" as="geometry"/></mxCell><mxCell id="tDXNHiry2UlxzGubVA_8-37" style="edgeStyle=none;rounded=0;orthogonalLoop=1;jettySize=auto;html=1;exitX=0.75;exitY=1;exitDx=0;exitDy=0;entryX=0;entryY=0;entryDx=0;entryDy=0;fontSize=18;endArrow=none;endFill=0;" parent="1" source="tDXNHiry2UlxzGubVA_8-22" target="tDXNHiry2UlxzGubVA_8-36" edge="1"><mxGeometry relative="1" as="geometry"/></mxCell><mxCell id="tDXNHiry2UlxzGubVA_8-22" value="用户举报表" style="rounded=1;whiteSpace=wrap;html=1;fontSize=18;" parent="1" vertex="1"><mxGeometry x="-1600" y="630" width="130" height="50" as="geometry"/></mxCell><mxCell id="tDXNHiry2UlxzGubVA_8-24" style="edgeStyle=none;rounded=0;orthogonalLoop=1;jettySize=auto;html=1;exitX=1;exitY=0.5;exitDx=0;exitDy=0;endArrow=none;endFill=0;fontSize=18;" parent="1" source="tDXNHiry2UlxzGubVA_8-23" target="tDXNHiry2UlxzGubVA_8-22" edge="1"><mxGeometry relative="1" as="geometry"/></mxCell><mxCell id="tDXNHiry2UlxzGubVA_8-23" value="举报类型" style="ellipse;whiteSpace=wrap;html=1;fontSize=18;" parent="1" vertex="1"><mxGeometry x="-1790" y="620" width="80" height="50" as="geometry"/></mxCell><mxCell id="tDXNHiry2UlxzGubVA_8-30" style="edgeStyle=none;rounded=0;orthogonalLoop=1;jettySize=auto;html=1;exitX=1;exitY=0;exitDx=0;exitDy=0;entryX=0;entryY=0.75;entryDx=0;entryDy=0;fontSize=18;endArrow=none;endFill=0;" parent="1" source="tDXNHiry2UlxzGubVA_8-25" target="tDXNHiry2UlxzGubVA_8-22" edge="1"><mxGeometry relative="1" as="geometry"/></mxCell><mxCell id="tDXNHiry2UlxzGubVA_8-25" value="举报对象" style="ellipse;whiteSpace=wrap;html=1;fontSize=18;" parent="1" vertex="1"><mxGeometry x="-1800" y="685" width="110" height="35" as="geometry"/></mxCell><mxCell id="tDXNHiry2UlxzGubVA_8-31" style="edgeStyle=none;rounded=0;orthogonalLoop=1;jettySize=auto;html=1;exitX=1;exitY=0;exitDx=0;exitDy=0;entryX=0.154;entryY=1;entryDx=0;entryDy=0;entryPerimeter=0;fontSize=18;endArrow=none;endFill=0;" parent="1" source="tDXNHiry2UlxzGubVA_8-26" target="tDXNHiry2UlxzGubVA_8-22" edge="1"><mxGeometry relative="1" as="geometry"/></mxCell><mxCell id="tDXNHiry2UlxzGubVA_8-26" value="创建时间" style="ellipse;whiteSpace=wrap;html=1;fontSize=18;" parent="1" vertex="1"><mxGeometry x="-1720" y="715" width="110" height="55" as="geometry"/></mxCell><mxCell id="tDXNHiry2UlxzGubVA_8-32" style="edgeStyle=none;rounded=0;orthogonalLoop=1;jettySize=auto;html=1;exitX=0.5;exitY=0;exitDx=0;exitDy=0;fontSize=18;endArrow=none;endFill=0;" parent="1" source="tDXNHiry2UlxzGubVA_8-27" target="tDXNHiry2UlxzGubVA_8-22" edge="1"><mxGeometry relative="1" as="geometry"/></mxCell><mxCell id="tDXNHiry2UlxzGubVA_8-27" value="内容" style="ellipse;whiteSpace=wrap;html=1;fontSize=18;" parent="1" vertex="1"><mxGeometry x="-1640" y="760" width="100" height="40" as="geometry"/></mxCell><mxCell id="tDXNHiry2UlxzGubVA_8-28" value="id" style="ellipse;whiteSpace=wrap;html=1;fontSize=18;" parent="1" vertex="1"><mxGeometry x="-1750" y="560" width="80" height="40" as="geometry"/></mxCell><mxCell id="tDXNHiry2UlxzGubVA_8-34" style="edgeStyle=none;rounded=0;orthogonalLoop=1;jettySize=auto;html=1;exitX=0.5;exitY=0;exitDx=0;exitDy=0;entryX=0.5;entryY=1;entryDx=0;entryDy=0;fontSize=18;endArrow=none;endFill=0;" parent="1" source="tDXNHiry2UlxzGubVA_8-33" target="tDXNHiry2UlxzGubVA_8-22" edge="1"><mxGeometry relative="1" as="geometry"/></mxCell><mxCell id="tDXNHiry2UlxzGubVA_8-33" value="处理状态" style="ellipse;whiteSpace=wrap;html=1;fontSize=18;" parent="1" vertex="1"><mxGeometry x="-1530" y="770" width="80" height="30" as="geometry"/></mxCell><mxCell id="tDXNHiry2UlxzGubVA_8-36" value="处理结果" style="ellipse;whiteSpace=wrap;html=1;fontSize=18;" parent="1" vertex="1"><mxGeometry x="-1440" y="750" width="80" height="40" as="geometry"/></mxCell><mxCell id="tDXNHiry2UlxzGubVA_8-38" value="分类图标" style="ellipse;whiteSpace=wrap;html=1;fontSize=18;" parent="1" vertex="1"><mxGeometry x="1070" y="40" width="90" height="40" as="geometry"/></mxCell><mxCell id="tDXNHiry2UlxzGubVA_8-39" value="专题数量" style="ellipse;whiteSpace=wrap;html=1;fontSize=18;" parent="1" vertex="1"><mxGeometry x="980" y="90" width="90" height="40" as="geometry"/></mxCell><mxCell id="tDXNHiry2UlxzGubVA_8-42" value="状态" style="ellipse;whiteSpace=wrap;html=1;fontSize=18;" parent="1" vertex="1"><mxGeometry x="1080" y="-10" width="80" height="30" as="geometry"/></mxCell><mxCell id="tDXNHiry2UlxzGubVA_8-45" style="edgeStyle=none;rounded=0;orthogonalLoop=1;jettySize=auto;html=1;exitX=0.5;exitY=0;exitDx=0;exitDy=0;fontSize=18;endArrow=none;endFill=0;" parent="1" source="tDXNHiry2UlxzGubVA_8-44" target="tDXNHiry2UlxzGubVA_8-18" edge="1"><mxGeometry relative="1" as="geometry"/></mxCell><mxCell id="tDXNHiry2UlxzGubVA_8-44" value="名字" style="ellipse;whiteSpace=wrap;html=1;fontSize=18;" parent="1" vertex="1"><mxGeometry x="890" y="100" width="80" height="30" as="geometry"/></mxCell><mxCell id="UJt75LuYCj4NZJ_EE6dZ-12" style="edgeStyle=none;rounded=0;orthogonalLoop=1;jettySize=auto;html=1;exitX=0;exitY=1;exitDx=0;exitDy=0;fontSize=18;endArrow=none;endFill=0;" parent="1" source="UJt75LuYCj4NZJ_EE6dZ-2" target="GQjXle8w0AGS4FvWoTMW-164" edge="1"><mxGeometry relative="1" as="geometry"/></mxCell><mxCell id="UJt75LuYCj4NZJ_EE6dZ-2" value="状态" style="ellipse;whiteSpace=wrap;html=1;fontSize=18;" parent="1" vertex="1"><mxGeometry x="377.5" y="350" width="60" height="40" as="geometry"/></mxCell><mxCell id="UJt75LuYCj4NZJ_EE6dZ-13" style="edgeStyle=none;rounded=0;orthogonalLoop=1;jettySize=auto;html=1;exitX=0;exitY=1;exitDx=0;exitDy=0;entryX=1;entryY=0;entryDx=0;entryDy=0;fontSize=18;endArrow=none;endFill=0;" parent="1" source="UJt75LuYCj4NZJ_EE6dZ-3" target="GQjXle8w0AGS4FvWoTMW-164" edge="1"><mxGeometry relative="1" as="geometry"/></mxCell><mxCell id="UJt75LuYCj4NZJ_EE6dZ-3" value="分类图标" style="ellipse;whiteSpace=wrap;html=1;fontSize=18;" parent="1" vertex="1"><mxGeometry x="430" y="375" width="80" height="30" as="geometry"/></mxCell><mxCell id="UJt75LuYCj4NZJ_EE6dZ-11" value="" style="edgeStyle=none;rounded=0;orthogonalLoop=1;jettySize=auto;html=1;fontSize=18;endArrow=none;endFill=0;" parent="1" source="UJt75LuYCj4NZJ_EE6dZ-4" target="GQjXle8w0AGS4FvWoTMW-164" edge="1"><mxGeometry relative="1" as="geometry"/></mxCell><mxCell id="UJt75LuYCj4NZJ_EE6dZ-4" value="名称" style="ellipse;whiteSpace=wrap;html=1;fontSize=18;" parent="1" vertex="1"><mxGeometry x="297.5" y="325" width="80" height="40" as="geometry"/></mxCell><mxCell id="UJt75LuYCj4NZJ_EE6dZ-10" style="rounded=0;orthogonalLoop=1;jettySize=auto;html=1;exitX=0.5;exitY=1;exitDx=0;exitDy=0;fontSize=18;endArrow=none;endFill=0;" parent="1" source="UJt75LuYCj4NZJ_EE6dZ-8" target="GQjXle8w0AGS4FvWoTMW-164" edge="1"><mxGeometry relative="1" as="geometry"/></mxCell><mxCell id="UJt75LuYCj4NZJ_EE6dZ-8" value="&lt;font style=&quot;font-size: 18px&quot;&gt;id&lt;/font&gt;" style="ellipse;whiteSpace=wrap;html=1;fontSize=1;strokeWidth=1;" parent="1" vertex="1"><mxGeometry x="220" y="335" width="70" height="30" as="geometry"/></mxCell><mxCell id="UJt75LuYCj4NZJ_EE6dZ-14" style="edgeStyle=none;rounded=0;orthogonalLoop=1;jettySize=auto;html=1;exitX=0;exitY=0.5;exitDx=0;exitDy=0;entryX=1;entryY=0.25;entryDx=0;entryDy=0;fontSize=18;endArrow=none;endFill=0;" parent="1" source="UJt75LuYCj4NZJ_EE6dZ-9" target="GQjXle8w0AGS4FvWoTMW-164" edge="1"><mxGeometry relative="1" as="geometry"/></mxCell><mxCell id="UJt75LuYCj4NZJ_EE6dZ-9" value="数量" style="ellipse;whiteSpace=wrap;html=1;fontSize=18;strokeWidth=1;" parent="1" vertex="1"><mxGeometry x="520" y="390" width="70" height="40" as="geometry"/></mxCell></root></mxGraphModel></diagram></mxfile>